<?xml version="1.0" encoding="UTF-8"?>
<svg id="Layer_1" data-name="Layer 1" xmlns="http://www.w3.org/2000/svg" viewBox="0 0 145 55">
  <path d="M6.91,43.73c1.21,.95,2.99,1.43,5.33,1.43,.99,0,2.16-.09,3.52-.27,1.28-1.5,3.87-5.03,7.75-10.59,3.89-5.56,6.86-9.32,8.91-11.3,.15-.11,.22-.27,.22-.47s-.05-.3-.17-.3l-3.68,2.2c-2.42,1.47-5.39,2.93-8.91,4.4-3.52,1.47-6.62,2.2-9.29,2.2-4.03,0-6.05-1.27-6.05-3.79,0-1.47,.7-3.25,2.09-5.33-2.16-.11-3.25-.61-3.25-1.49,0-.18,.08-.37,.25-.55,.17-.18,.3-.27,.41-.27s.5,.12,1.18,.36c.68,.24,1.53,.38,2.56,.41,2.49-3.15,5.67-5.98,9.52-8.47,3.85-2.49,7.22-3.74,10.12-3.74,1.65,0,2.47,.42,2.47,1.26,0,1.06-1.14,2.51-3.41,4.35-2.27,1.83-5.11,3.55-8.5,5.14-3.39,1.59-6.44,2.56-9.16,2.89-.81,1.39-1.21,2.62-1.21,3.69,0,2.31,1.98,3.46,5.94,3.46,2.24,0,5.37-.89,9.41-2.67,4.03-1.78,8.1-4.24,12.21-7.4,5.68-4.44,8.91-7.08,9.68-7.92,.22-.33,.45-.5,.69-.5s.45,.09,.63,.28c.18,.18,.27,.38,.27,.6s-.13,.4-.38,.55c-2.97,2.38-5.92,5.16-8.85,8.33-2.93,3.17-5.29,5.94-7.07,8.31-1.78,2.36-3.89,5.25-6.32,8.66-2.44,3.41-4.15,5.78-5.14,7.1,2.38-.62,4.66-1.4,6.82-2.34s3.47-1.66,3.91-2.17c.37,0,.55,.2,.55,.6,0,.55-1.33,1.4-3.99,2.56-2.66,1.16-5.49,2.12-8.5,2.89-3.59,4.44-6.77,6.65-9.52,6.65-1.1,0-1.92-.58-2.45-1.73-.53-1.15-.8-2.4-.8-3.74s.12-2.42,.36-3.25c.24-.83,.51-1.24,.82-1.24s.52,.05,.63,.16c.11,.11,.19,.28,.25,.52,.06,.24,.1,.41,.14,.52Zm2.09,6.05c1.43,0,3.19-1.08,5.28-3.25-1.39,.22-2.86,.33-4.4,.33s-2.68-.37-3.41-1.1c-.29,.04-.44,.34-.44,.91s.05,1.04,.14,1.43c.09,.39,.37,.76,.83,1.13,.46,.37,1.13,.55,2.01,.55ZM24.68,10.07c-1.91,0-4.37,1.05-7.4,3.16-3.03,2.11-5.47,4.43-7.34,6.96,3.3-.51,6.87-1.9,10.7-4.15,3.83-2.25,5.75-3.97,5.75-5.14,0-.55-.57-.83-1.71-.83Z"/>
  <path d="M36.04,46.15c.35,0,.62,.11,.82,.33,.2,.22,.3,.53,.3,.93s-.28,.92-.83,1.54-1.03,.94-1.43,.94-.7-.12-.88-.36c-.18-.24-.28-.51-.28-.82s.29-.82,.88-1.51c.59-.7,1.05-1.04,1.4-1.04Z"/>
  <path d="M43.95,46.35c.17-.24,.35-.38,.55-.44,.2-.06,.45-.08,.74-.08s.48,.14,.55,.41c.07,.27,.15,.41,.22,.41,1.61-1.17,3.94-3.75,6.99-7.73,3.04-3.98,5.88-8.36,8.53-13.15,2.64-4.79,3.96-8.41,3.96-10.86-.07-1.72-.7-3.02-1.87-3.9-1.03-.73-3.71-1.1-8.06-1.1s-7.79,.43-10.34,1.29c-2.55,.86-3.82,1.99-3.82,3.38,0,.88,.63,1.59,1.9,2.12,1.26,.53,2.54,.89,3.82,1.07,.51,.15,1.33,.27,2.45,.38,1.12,.11,2.14,.24,3.05,.38,.92,.15,1.83,.35,2.75,.61,2.05,.62,3.08,1.8,3.08,3.52l-.22,.33c-.62-.84-1.21-1.37-1.76-1.57-.55-.2-.93-.34-1.13-.41-.2-.07-.58-.16-1.13-.25-.55-.09-.95-.16-1.21-.19-.77-.11-1.82-.24-3.13-.38-6.75-.84-10.12-2.51-10.12-5.01,0-1.28,.65-2.38,1.95-3.3,1.3-.92,2.96-1.58,4.98-1.98,3.52-.7,6.99-1.04,10.4-1.04,4,0,6.76,.48,8.3,1.43,.62,.4,1.16,1.02,1.62,1.84s.69,1.81,.69,2.94c0,2.16-1.76,6.2-5.28,12.1-3.52,5.9-7.29,11.36-11.3,16.36-4.01,5.01-6.65,7.51-7.89,7.51-.62,0-.93-.31-.93-.94,0-.26,.07-.54,.22-.85,.15-.31,.34-.73,.58-1.27,.24-.53,.4-.88,.5-1.04,.09-.17,.22-.37,.38-.6Zm31.1-25.33c0,.18-.04,.53-.11,1.04,1.06-.95,2.69-2.45,4.87-4.48,2.18-2.03,4.01-3.71,5.5-5.03,1.49-1.32,3.14-2.71,4.98-4.18,3.7-3.01,6.6-4.51,8.69-4.51,.51,0,.77,.17,.77,.49-.04,.73-.37,1.38-.99,1.95-.62,.57-1.33,.94-2.12,1.1-.79,.17-1.82,.6-3.11,1.32-1.28,.72-2.78,1.71-4.48,3-1.71,1.28-3.24,2.48-4.59,3.58s-3.08,2.52-5.17,4.26c-2.09,1.74-3.63,3.02-4.62,3.82-.26,1.06-1.33,4.55-3.22,10.45-1.89,5.9-2.83,9.66-2.83,11.28,0,2.02,.99,3.02,2.97,3.02,1.14,0,2.23-.21,3.27-.63,1.04-.42,1.87-.85,2.48-1.29,.6-.44,.96-.66,1.07-.66s.17,.07,.17,.22c0,.84-1.06,1.72-3.19,2.64-2.13,.92-3.79,1.38-5,1.38-2.53,0-3.79-1.32-3.79-3.96,0-2.49,.7-5.89,2.09-10.17,.48-1.47,1.13-3.39,1.95-5.78,.82-2.38,1.33-3.87,1.51-4.46-2.9,2.24-4.88,3.36-5.94,3.36s-1.59-.4-1.59-1.21c0-1.28,1.15-2.97,3.46-5.06,2.31-2.09,4.23-3.14,5.77-3.14,.81,0,1.21,.55,1.21,1.65Zm-8.3,6.38c1.17,0,3.1-1.1,5.78-3.3,.26-.77,.38-1.38,.38-1.81,0-.77-.33-1.15-.99-1.15-.84,0-2.02,.77-3.52,2.31-1.5,1.54-2.26,2.7-2.26,3.47,0,.33,.2,.5,.61,.5Z"/>
  <path d="M87.62,46.15c.35,0,.62,.11,.83,.33,.2,.22,.3,.53,.3,.93s-.28,.92-.83,1.54-1.03,.94-1.43,.94-.7-.12-.88-.36c-.18-.24-.27-.51-.27-.82s.29-.82,.88-1.51c.59-.7,1.05-1.04,1.4-1.04Z"/>
  <path d="M93.21,51.21c0-1.94,2.53-6.11,7.59-12.51,5.06-6.4,10.63-12.33,16.72-17.79,.81-2.02,1.21-3.61,1.21-4.79,0-4.95-4.2-7.42-12.6-7.42-2.57,0-4.84,.48-6.82,1.43-1.21,.59-1.82,1.32-1.82,2.2s.65,1.79,1.95,2.72c1.3,.94,2.74,1.77,4.32,2.5,1.58,.73,3.02,1.7,4.32,2.89,1.3,1.19,1.95,2.45,1.95,3.77,0,.73-.07,1.28-.22,1.65-.15,.37-.28,.55-.38,.55-.18,0-.31-.26-.39-.77,0-2.05-1.54-3.9-4.62-5.56-1.32-.7-2.64-1.38-3.96-2.03-3.08-1.65-4.62-3.43-4.62-5.33,0-.88,.4-1.66,1.21-2.34,.81-.68,1.83-1.2,3.08-1.57,2.38-.66,4.42-.99,6.1-.99s3.28,.13,4.79,.38c1.5,.26,3.07,.68,4.7,1.27,1.63,.59,2.97,1.49,4.02,2.72,1.04,1.23,1.57,2.69,1.57,4.37,0,.22-.04,.62-.11,1.21,7.66-6.27,13.71-9.41,18.15-9.41,1.83,0,2.75,.77,2.75,2.31,0,1.76-1.04,4.07-3.11,6.93-2.07,2.86-4.58,5.42-7.54,7.67-2.95,2.25-5.51,3.38-7.67,3.38-2.53,0-3.89-1.3-4.07-3.9,0-.59,.18-.88,.55-.88,.26,0,.5,.27,.74,.82,.24,.55,.7,1.15,1.38,1.79,.68,.64,1.38,.96,2.12,.96,1.69,0,3.7-1.14,6.05-3.41,2.35-2.27,4.32-4.7,5.91-7.29s2.39-4.45,2.39-5.58c0-.81-.42-1.21-1.27-1.21-3.7,0-9.37,3.34-16.99,10.01-1.21,3.48-3.56,7.82-7.04,13.01-3.48,5.19-7.1,9.73-10.83,13.61-3.74,3.89-6.47,5.83-8.2,5.83-.88,0-1.32-.4-1.32-1.21Zm2.37-.33c1.8,0,5.02-3.08,9.68-9.24,4.66-6.16,8.32-12.06,11-17.71-5.43,5.21-10.27,10.51-14.52,15.92-4.25,5.41-6.38,8.99-6.38,10.75,0,.18,.07,.27,.22,.27Z"/>
</svg>