<?xml version="1.0" encoding="UTF-8"?>
<svg id="Layer_1" data-name="Layer 1" xmlns="http://www.w3.org/2000/svg" viewBox="0 0 200 55">
  <path d="M3.76,42.56c1.21,.95,2.99,1.43,5.33,1.43,.99,0,2.16-.09,3.52-.27,1.28-1.5,3.87-5.03,7.75-10.59,3.89-5.56,6.86-9.32,8.91-11.3,.15-.11,.22-.27,.22-.47s-.05-.3-.16-.3l-3.69,2.2c-2.42,1.47-5.39,2.93-8.91,4.4-3.52,1.47-6.62,2.2-9.29,2.2-4.03,0-6.05-1.27-6.05-3.79,0-1.47,.7-3.25,2.09-5.33-2.16-.11-3.25-.61-3.25-1.49,0-.18,.08-.37,.25-.55,.17-.18,.3-.27,.41-.27s.5,.12,1.18,.36c.68,.24,1.53,.38,2.56,.41,2.49-3.15,5.67-5.98,9.51-8.47,3.85-2.49,7.22-3.74,10.12-3.74,1.65,0,2.47,.42,2.47,1.26,0,1.06-1.14,2.51-3.41,4.35-2.27,1.83-5.11,3.55-8.5,5.14-3.39,1.59-6.44,2.56-9.16,2.89-.81,1.39-1.21,2.62-1.21,3.69,0,2.31,1.98,3.46,5.94,3.46,2.24,0,5.37-.89,9.41-2.67,4.03-1.78,8.1-4.24,12.21-7.4,5.68-4.44,8.91-7.08,9.68-7.92,.22-.33,.45-.5,.69-.5s.45,.09,.63,.28c.18,.18,.28,.38,.28,.6s-.13,.4-.38,.55c-2.97,2.38-5.92,5.16-8.86,8.33-2.93,3.17-5.29,5.94-7.07,8.31-1.78,2.36-3.89,5.25-6.33,8.66-2.44,3.41-4.15,5.78-5.14,7.1,2.38-.62,4.66-1.4,6.82-2.34,2.16-.94,3.46-1.66,3.91-2.17,.37,0,.55,.2,.55,.6,0,.55-1.33,1.4-3.99,2.56-2.66,1.16-5.49,2.12-8.5,2.89-3.59,4.44-6.76,6.65-9.51,6.65-1.1,0-1.92-.58-2.45-1.73-.53-1.15-.8-2.4-.8-3.74s.12-2.42,.36-3.25c.24-.83,.51-1.24,.83-1.24s.52,.05,.63,.16c.11,.11,.19,.28,.25,.52,.05,.24,.1,.41,.14,.52Zm2.09,6.05c1.43,0,3.19-1.08,5.28-3.25-1.39,.22-2.86,.33-4.4,.33s-2.68-.37-3.41-1.1c-.29,.04-.44,.34-.44,.91s.04,1.04,.14,1.43c.09,.39,.37,.76,.83,1.13,.46,.37,1.13,.55,2.01,.55ZM21.53,8.9c-1.91,0-4.37,1.05-7.4,3.16-3.03,2.11-5.47,4.43-7.34,6.96,3.3-.51,6.87-1.9,10.7-4.15,3.83-2.25,5.75-3.97,5.75-5.14,0-.55-.57-.83-1.71-.83Z"/>
  <path d="M36.93,40.63c-.22,0-.33-.08-.33-.25s.13-.36,.38-.58c1.21-.99,1.81-1.89,1.81-2.7,0-.51-.46-.81-1.38-.88-1.65,.04-3.62,1.23-5.91,3.58-2.29,2.35-3.44,4.11-3.44,5.28,0,.4,.23,.6,.69,.6s1.07-.31,1.84-.94c.7-.44,2-1.54,3.9-3.3,.44-.44,.86-.66,1.27-.66,.51,0,.77,.24,.77,.71,0,.18-.05,.33-.17,.44-.11,.11-.31,.34-.6,.69-.29,.35-.55,.67-.77,.96-.66,.95-.99,1.58-.99,1.87,0,.73,.29,1.1,.88,1.1,.77,0,2.22-.71,4.34-2.12,2.13-1.41,4.07-2.83,5.83-4.26l2.64-2.09c.26-.18,.5-.27,.71-.27s.33,.13,.33,.38v.11c-2.82,2.38-5.8,4.62-8.94,6.71-3.13,2.09-5.2,3.14-6.19,3.14-1.17,0-1.76-.62-1.76-1.87,0-.29,.05-.57,.17-.82,.11-.26,.17-.44,.17-.55s-.04-.18-.11-.22c-.11,0-.82,.49-2.12,1.48-1.3,.99-2.44,1.48-3.41,1.48s-1.46-.51-1.46-1.54,.69-2.41,2.06-4.15c1.38-1.74,3.22-3.33,5.53-4.76,2.31-1.43,4.56-2.15,6.76-2.15,.51,0,.94,.13,1.29,.38,.35,.26,.52,.65,.52,1.18s-.53,1.33-1.59,2.39c-1.06,1.06-1.98,1.59-2.75,1.59Z"/>
  <path d="M48.86,46.52c0-.55,.27-1.27,.8-2.15,.53-.88,.82-1.39,.85-1.54,.04-.15,0-.22-.11-.22s-.27,.1-.47,.3c-.2,.2-1.32,.97-3.35,2.31-2.04,1.34-3.44,2.01-4.21,2.01-.51,0-.77-.33-.77-.99s1.03-2.36,3.08-5.11c2.05-2.75,3.5-4.12,4.34-4.12,.18,0,.36,.08,.52,.25s.25,.29,.25,.38-.94,1.22-2.83,3.38c-1.89,2.16-2.83,3.56-2.83,4.18,0,.15,.07,.22,.22,.22,.7,0,2.2-.94,4.51-2.81s3.95-3.32,4.92-4.34c.97-1.03,1.73-1.54,2.28-1.54s.83,.24,.83,.71c0,.29-.11,.59-.33,.88-.22,.29-.63,.82-1.24,1.57-.61,.75-1.17,1.46-1.68,2.12-1.43,1.83-2.15,2.98-2.15,3.44s.19,.69,.58,.69,1.33-.51,2.83-1.54c2.79-1.83,5.33-3.69,7.65-5.55l1.21-.99c.26-.18,.48-.27,.66-.27s.27,.11,.27,.33v.17c.15,0-.83,.81-2.94,2.42-2.11,1.61-4.36,3.23-6.76,4.84-2.4,1.61-3.92,2.42-4.54,2.42-1.06,0-1.59-.48-1.59-1.43Z"/>
  <path d="M75.81,38.1c.26-.18,.5-.27,.71-.27s.33,.13,.33,.38v.11c-2.75,2.2-5.46,4.26-8.14,6.19-2.68,1.93-4.64,2.89-5.88,2.89-.92,0-1.38-.5-1.38-1.48s.44-1.98,1.32-2.97c.88-.99,1.75-1.85,2.61-2.58,.86-.73,1.29-1.22,1.29-1.46s-.14-.51-.41-.83c-.28-.31-.5-.52-.69-.63-.62,.62-1.98,1.76-4.07,3.41l-.22-.83c2.31-1.83,3.65-3.06,4.01-3.69v-.49c0-.92,.09-1.54,.28-1.87,.18-.33,.62-.79,1.32-1.38,.7-.59,1.17-.88,1.43-.88s.49,.09,.69,.27c.2,.18,.3,.37,.3,.55s-.06,.39-.19,.63c-.13,.24-.26,.44-.38,.61-.13,.16-.3,.37-.52,.6-.22,.24-.36,.4-.41,.49-.06,.09-.11,.25-.17,.47-.06,.22-.17,.4-.36,.55-.18,.15-.28,.33-.28,.55s.15,.71,.44,1.46c.29,.75,.44,1.3,.44,1.65s-.68,1.17-2.04,2.48c-1.36,1.3-2.03,2.36-2.03,3.16,0,.44,.2,.66,.6,.66,.51,0,1.47-.46,2.86-1.38l.66-.44c2.38-1.65,4.62-3.32,6.71-5l1.15-.94Z"/>
  <path d="M81.48,40.63c-.22,0-.33-.08-.33-.25s.13-.36,.38-.58c1.21-.99,1.81-1.89,1.81-2.7,0-.51-.46-.81-1.38-.88-1.65,.04-3.62,1.23-5.91,3.58-2.29,2.35-3.44,4.11-3.44,5.28,0,.4,.23,.6,.69,.6s1.07-.31,1.84-.94c.7-.44,2-1.54,3.9-3.3,.44-.44,.86-.66,1.27-.66,.51,0,.77,.24,.77,.71,0,.18-.05,.33-.17,.44-.11,.11-.31,.34-.6,.69-.29,.35-.55,.67-.77,.96-.66,.95-.99,1.58-.99,1.87,0,.73,.29,1.1,.88,1.1,.77,0,2.22-.71,4.34-2.12,2.13-1.41,4.07-2.83,5.83-4.26l2.64-2.09c.26-.18,.5-.27,.71-.27s.33,.13,.33,.38v.11c-2.82,2.38-5.8,4.62-8.94,6.71-3.13,2.09-5.2,3.14-6.19,3.14-1.17,0-1.76-.62-1.76-1.87,0-.29,.05-.57,.17-.82,.11-.26,.17-.44,.17-.55s-.04-.18-.11-.22c-.11,0-.82,.49-2.12,1.48-1.3,.99-2.44,1.48-3.41,1.48s-1.46-.51-1.46-1.54,.69-2.41,2.06-4.15c1.38-1.74,3.22-3.33,5.53-4.76,2.31-1.43,4.56-2.15,6.76-2.15,.51,0,.94,.13,1.29,.38,.35,.26,.52,.65,.52,1.18s-.53,1.33-1.59,2.39c-1.06,1.06-1.98,1.59-2.75,1.59Z"/>
  <path d="M101.99,38.49l-.88-.38c-.7,0-4.49,2.99-11.38,8.96-.66,.59-1.15,.88-1.46,.88s-.55-.11-.72-.33c-.17-.22-.25-.47-.25-.74s.62-1.52,1.87-3.74c1.25-2.22,1.87-3.41,1.87-3.57s-.07-.25-.22-.25c-.51,.26-.9,.38-1.15,.38s-.39-.08-.39-.25,.07-.32,.22-.47c1.54-1.21,2.61-1.81,3.22-1.81s.91,.35,.91,1.04-.46,1.82-1.38,3.38c-.92,1.56-1.38,2.47-1.38,2.72s.06,.39,.19,.39,.28-.07,.47-.22c.18-.15,1.15-.99,2.92-2.53,5.98-4.69,9.24-7.04,9.79-7.04h.05c.22,0,.44,.07,.66,.22,.22,.15,.33,.37,.33,.66s-.42,.82-1.27,1.57c-.84,.75-1.52,1.13-2.04,1.13Z"/>
  <path d="M111.23,50.04c0-1.94,2.53-6.11,7.59-12.51,5.06-6.4,10.63-12.33,16.72-17.79,.81-2.02,1.21-3.61,1.21-4.79,0-4.95-4.2-7.42-12.59-7.42-2.57,0-4.84,.48-6.82,1.43-1.21,.59-1.81,1.32-1.81,2.2s.65,1.79,1.95,2.72c1.3,.94,2.74,1.77,4.32,2.5,1.58,.73,3.02,1.7,4.32,2.89,1.3,1.19,1.95,2.45,1.95,3.77,0,.73-.07,1.28-.22,1.65-.15,.37-.27,.55-.38,.55-.18,0-.31-.26-.38-.77,0-2.05-1.54-3.9-4.62-5.56-1.32-.7-2.64-1.38-3.96-2.03-3.08-1.65-4.62-3.43-4.62-5.33,0-.88,.4-1.66,1.21-2.34,.81-.68,1.83-1.2,3.08-1.57,2.38-.66,4.42-.99,6.11-.99s3.28,.13,4.78,.38c1.5,.26,3.07,.68,4.7,1.27,1.63,.59,2.97,1.49,4.01,2.72,1.04,1.23,1.57,2.69,1.57,4.37,0,.22-.04,.62-.11,1.21,7.66-6.27,13.71-9.41,18.15-9.41,1.83,0,2.75,.77,2.75,2.31,0,1.76-1.04,4.07-3.11,6.93-2.07,2.86-4.58,5.42-7.54,7.67s-5.51,3.38-7.67,3.38c-2.53,0-3.89-1.3-4.07-3.9,0-.59,.18-.88,.55-.88,.26,0,.5,.27,.74,.82,.24,.55,.7,1.15,1.38,1.79,.68,.64,1.38,.96,2.12,.96,1.69,0,3.7-1.14,6.05-3.41,2.35-2.27,4.32-4.7,5.91-7.29,1.6-2.58,2.39-4.45,2.39-5.58,0-.81-.42-1.21-1.26-1.21-3.7,0-9.37,3.34-17,10.01-1.21,3.48-3.56,7.82-7.04,13.01-3.48,5.19-7.09,9.73-10.83,13.61s-6.47,5.83-8.2,5.83c-.88,0-1.32-.4-1.32-1.21Zm2.37-.33c1.8,0,5.02-3.08,9.68-9.24,4.66-6.16,8.32-12.06,11-17.71-5.43,5.21-10.27,10.51-14.52,15.92-4.25,5.41-6.38,8.99-6.38,10.75,0,.18,.07,.27,.22,.27Z"/>
  <path d="M144.51,40.63c-.22,0-.33-.08-.33-.25s.13-.36,.38-.58c1.21-.99,1.81-1.89,1.81-2.7,0-.51-.46-.81-1.38-.88-1.65,.04-3.62,1.23-5.91,3.58-2.29,2.35-3.44,4.11-3.44,5.28,0,.4,.23,.6,.69,.6s1.07-.31,1.84-.94c.7-.44,2-1.54,3.9-3.3,.44-.44,.86-.66,1.27-.66,.51,0,.77,.24,.77,.71,0,.18-.05,.33-.17,.44-.11,.11-.31,.34-.6,.69-.29,.35-.55,.67-.77,.96-.66,.95-.99,1.58-.99,1.87,0,.73,.29,1.1,.88,1.1,.77,0,2.22-.71,4.34-2.12,2.13-1.41,4.07-2.83,5.83-4.26l2.64-2.09c.26-.18,.5-.27,.71-.27s.33,.13,.33,.38v.11c-2.82,2.38-5.8,4.62-8.94,6.71-3.13,2.09-5.2,3.14-6.19,3.14-1.17,0-1.76-.62-1.76-1.87,0-.29,.05-.57,.17-.82,.11-.26,.17-.44,.17-.55s-.04-.18-.11-.22c-.11,0-.82,.49-2.12,1.48-1.3,.99-2.44,1.48-3.41,1.48s-1.46-.51-1.46-1.54,.69-2.41,2.06-4.15c1.38-1.74,3.22-3.33,5.53-4.76,2.31-1.43,4.56-2.15,6.76-2.15,.51,0,.94,.13,1.29,.38,.35,.26,.52,.65,.52,1.18s-.53,1.33-1.59,2.39c-1.06,1.06-1.98,1.59-2.75,1.59Z"/>
  <path d="M184.99,23.92l-7.87-.39c-3.23,0-6.43,.13-9.62,.39l.28,1.1c0,.4-1.19,1.93-3.58,4.59-2.38,2.66-4.77,5.56-7.15,8.69-2.38,3.13-3.58,5.45-3.58,6.96,0,.59,.21,.88,.63,.88s1.38-.51,2.89-1.54c2.79-1.83,5.33-3.69,7.65-5.55l1.21-.99c.26-.18,.48-.27,.66-.27s.27,.11,.27,.33v.17c.15,0-.83,.81-2.94,2.42-2.11,1.61-4.36,3.23-6.76,4.84-2.4,1.61-3.92,2.42-4.54,2.42-1.06,0-1.59-.48-1.59-1.43,0-1.39,.78-3.32,2.34-5.78,1.56-2.46,3.26-4.78,5.11-6.96,1.85-2.18,3.61-4.24,5.28-6.19,1.67-1.94,2.58-3.14,2.72-3.58-4.03,.37-7.13,.81-9.29,1.32l-1.1,.22c-.29,.04-.44,.31-.44,.82,0,.22-.26,.33-.77,.33s-1.15-.12-1.9-.36c-.75-.24-1.13-.58-1.13-1.02s.37-.73,1.1-.88c5.43-.95,9.28-1.53,11.55-1.73,2.27-.2,3.79-.33,4.54-.39,.75-.05,1.92-.1,3.52-.14,1.6-.04,2.67-.06,3.22-.06,1.65-.07,3.58-.11,5.8-.11s3.57,.09,4.04,.27c.48,.18,.71,.53,.71,1.04,0,.37-.42,.55-1.26,.55Z"/>
  <path d="M176.19,38.05c.29-.18,.52-.27,.69-.27s.25,.11,.25,.33v.17c.15,0-.83,.81-2.94,2.42-2.11,1.61-4.36,3.23-6.76,4.84-2.4,1.61-3.92,2.42-4.54,2.42-1.06,0-1.59-.44-1.59-1.32,0-1.06,.92-3.07,2.75-6.02,1.83-2.95,3.17-4.43,4.02-4.43,.62,0,.93,.24,.93,.72s-.84,1.78-2.53,3.9c-1.69,2.13-2.53,3.65-2.53,4.56,0,.51,.19,.77,.58,.77s1.35-.51,2.89-1.54c2.75-1.83,5.28-3.69,7.59-5.55l1.21-.99Zm-4.54-7.42c.35,0,.62,.11,.83,.33,.2,.22,.3,.53,.3,.93s-.28,.92-.83,1.54c-.55,.62-1.03,.94-1.43,.94s-.7-.12-.88-.36c-.18-.24-.28-.51-.28-.83s.29-.82,.88-1.51c.59-.7,1.05-1.04,1.4-1.04Z"/>
  <path d="M189.33,38.1c.26-.18,.5-.27,.71-.27s.33,.13,.33,.38v.11c-3.81,3.15-6.71,5.35-8.69,6.6-2.57,1.94-4.73,2.92-6.49,2.92-1.54,0-2.31-.92-2.31-2.75,0-2.46,1.59-6.1,4.76-10.92,3.17-4.82,6.74-9.16,10.7-13.01,3.96-3.85,6.95-5.78,8.96-5.78,.92,0,1.38,.4,1.38,1.21,0,2.02-2.41,5.34-7.23,9.98-4.82,4.64-9.56,8.59-14.22,11.85-1.36,2.6-2.04,4.58-2.04,5.94s.48,2.03,1.43,2.03,2.2-.55,3.74-1.65c2.6-1.54,5.13-3.37,7.59-5.5l1.38-1.15Zm6.6-20.96c-1.54,0-4.27,2.22-8.2,6.65-3.92,4.44-7.17,8.87-9.73,13.31,4.22-3.01,8.34-6.68,12.38-11.03,4.03-4.35,6.05-7.16,6.05-8.44,0-.33-.17-.5-.5-.5Z"/>
</svg>