<?xml version="1.0" encoding="UTF-8"?>
<svg id="Layer_1" data-name="Layer 1" xmlns="http://www.w3.org/2000/svg" viewBox="0 0 210 55">
  <defs>
    <style>
      .cls-1 {
        fill: #ff6f40;
      }
    </style>
  </defs>
  <path class="cls-1" d="M16.76,53.11c-.66,0-.99-.17-.99-.5,0-.15,.24-.29,.71-.44,.84-.29,1.49-.55,1.95-.77,.46-.22,.76-.37,.91-.44,1.47-1.28,2.95-3.2,4.46-5.75,1.5-2.55,3.01-5.71,4.51-9.49-5.06,5.35-10.29,8.03-15.67,8.03-2.93,0-5.26-.79-6.99-2.36-1.72-1.61-2.58-3.67-2.58-6.16,0-1.32,.17-2.62,.52-3.9,.35-1.28,.82-2.48,1.4-3.58,1.32-2.46,3.03-4.69,5.14-6.71,2.11-2.02,4.59-3.67,7.45-4.95,1.58-.73,3.11-1.25,4.59-1.54,1.49-.29,2.85-.44,4.1-.44,1.06,0,2.04,.09,2.94,.28,.9,.18,1.68,.42,2.34,.71l.99-1.71c.59-.81,1.32-1.21,2.2-1.21s1.27,.18,1.27,.55c0,.07-.42,.53-1.27,1.38-.48,.48-.82,.82-1.02,1.02-.2,.2-.45,.45-.74,.74,.48,.29,.89,.61,1.24,.96,.35,.35,.52,.56,.52,.63,0,.04-.25,.35-.74,.93-.5,.59-.98,1.19-1.46,1.82-1.32,1.69-2,2.77-2.03,3.24l.17,.17c0,.18-.09,.27-.28,.27-.55,0-.83-.55-.83-1.65,0-2.09,.51-4.18,1.54-6.27-1.36-.7-2.86-1.04-4.51-1.04-3.3,0-6.64,1.04-10.01,3.14-3.3,2.02-6.05,4.56-8.25,7.65-1.1,1.58-1.91,3.08-2.42,4.51-.51,1.43-.77,2.79-.77,4.07,0,2.35,.8,4.29,2.39,5.83s3.75,2.31,6.46,2.31c4.33,0,9.02-2.88,14.08-8.63,.48-.51,.87-.96,1.18-1.35,.31-.39,.54-.71,.69-.96l.55-1.6c-2.9,.59-5.25,1.02-7.07,1.29-1.81,.27-3.09,.41-3.82,.41-.44,0-.84-.22-1.21-.66-.37-.44-.55-1.01-.55-1.71,0-.15,.07-.22,.22-.22l3.25,.33c4.18,0,7.37-.11,9.57-.33,.22-.73,.51-1.1,.88-1.1,.18,0,.4,.06,.66,.19,.26,.13,.57,.3,.93,.52l1.65-.27c.29,0,.44,.11,.44,.33,0,.18-.6,.39-1.81,.6-2.64,6.67-5.59,12.3-8.86,16.89-3.23,4.62-5.9,6.93-8.03,6.93Zm13.75-31.29c.29-.37,.68-.91,1.15-1.62,.48-.71,1.06-1.6,1.76-2.67l-.61-.55c-1.17,1.87-1.94,3.48-2.31,4.84Z"/>
  <path class="cls-1" d="M36.83,41.67c-.73,0-1.4-.34-2.01-1.02-.6-.68-.91-1.55-.91-2.61s.64-2.71,1.92-4.95c1.28-2.2,2.86-4.18,4.73-5.94,1.83-1.72,3.41-2.58,4.73-2.58h.55c1.36,0,2.51,.27,3.46,.8,.95,.53,1.43,1.24,1.43,2.12,0,.4-.17,.6-.5,.6-.11,0-.17-.06-.17-.17-.59-1.36-1.48-2.04-2.69-2.04-2.09,0-4.47,1.72-7.15,5.17-2.68,3.37-4.01,5.98-4.01,7.81,0,.7,.18,1.05,.55,1.05,1.65,0,5.12-3.72,10.39-11.17-.04,.04,0,.03,.08-.03,.09-.05,.17-.08,.25-.08,.18,0,.57,.18,1.16,.55,.59,.33,.88,.62,.88,.88-.29,.48-.55,.95-.77,1.43-.59,1.25-1.04,2.47-1.35,3.66-.31,1.19-.47,2.23-.47,3.11,0,1.94,.48,2.92,1.43,2.92l.55-.11,.11,.06c0,.33-.46,.49-1.38,.49s-1.61-.4-2.2-1.21c-.55-.84-.82-1.96-.82-3.35s.24-2.86,.71-4.51c-.04,.11-.17,.31-.39,.6-.22,.29-.57,.81-1.04,1.54-3.01,4.66-5.37,6.98-7.09,6.98Z"/>
  <path class="cls-1" d="M64.83,41.95c-1.06,0-1.91-.49-2.53-1.48-.26-.51-.47-1.05-.63-1.62-.17-.57-.25-1.24-.25-2.01s.08-1.58,.25-2.53c.17-.95,.38-2.03,.63-3.24-1.43,2.35-2.62,4.24-3.58,5.69-.95,1.45-1.69,2.48-2.2,3.11-.92,1.21-1.85,1.81-2.8,1.81s-1.68-.34-2.28-1.02c-.6-.68-.91-1.42-.91-2.23,0-1.5,.81-4.03,2.42-7.59,1.61-3.63,2.42-5.48,2.42-5.56l-.5-.99c0-.11,.13-.17,.39-.17,.33,0,.93,.18,1.81,.55,.92,.37,1.38,.68,1.38,.94-.18,.37-.52,1.05-1.02,2.06-.5,1.01-1.16,2.36-2.01,4.04-1.61,3.41-2.42,5.67-2.42,6.77s.24,1.71,.71,1.71c.59,0,1.43-.66,2.53-1.98,.59-.73,1.14-1.47,1.65-2.2,.51-.73,1.04-1.54,1.59-2.42l4.62-7.48c.55-.88,1.14-1.32,1.76-1.32,1.25,0,1.91,.24,1.98,.71-.07-.07-.17,.04-.28,.33-1.03,1.87-1.96,4.12-2.8,6.77-.81,2.57-1.21,4.29-1.21,5.17,0,2.24,.4,3.35,1.21,3.35,.26,0,.79-.35,1.59-1.04,.07,0,.11,.15,.11,.44,0,.95-.55,1.43-1.65,1.43Z"/>
  <path class="cls-1" d="M69.23,41.34c-.33,0-.7-.09-1.1-.27-.4-.18-.61-.4-.61-.66,0-.62,.61-2.82,1.82-6.6,1.21-3.81,1.81-6.67,1.81-8.58,0-.59-.26-.92-.77-.99-.51-.07-.77-.18-.77-.33,0-.33,.28-.49,.83-.49,2.46,0,3.69,1.01,3.69,3.02,0,.59-.61,2.75-1.82,6.49,1.98-3.23,4.18-5.44,6.6-6.65,.62-1.32,1.48-1.98,2.58-1.98s1.65,.09,1.76,.27c-.04-.04-.11,.02-.22,.17-.11,.15-.24,.31-.39,.5-.59,.84-1.1,1.66-1.54,2.45-.44,.79-.68,1.4-.71,1.84,0,.99,.35,1.59,1.04,1.81,.07,.04,.16,.05,.25,.05s.14,.04,.14,.11c0,.29-.37,.44-1.1,.44s-1.3-.27-1.81-.83c-.29-.33-.5-.69-.61-1.07-.11-.39-.17-.76-.17-1.13,0-.59,.09-1.12,.28-1.6-.92,.7-1.74,1.42-2.48,2.17-.73,.75-1.41,1.49-2.04,2.23-1.17,1.5-1.99,2.83-2.45,3.99-.46,1.15-.78,2.14-.96,2.94-.22,.88-.4,1.55-.55,2.01-.15,.46-.38,.69-.71,.69Z"/>
  <path class="cls-1" d="M83.09,41.67c-.73,0-1.4-.34-2.01-1.02-.61-.68-.91-1.55-.91-2.61s.64-2.71,1.92-4.95c1.28-2.2,2.86-4.18,4.73-5.94,1.83-1.72,3.41-2.58,4.73-2.58h.55c1.36,0,2.51,.27,3.46,.8,.95,.53,1.43,1.24,1.43,2.12,0,.4-.17,.6-.5,.6-.11,0-.17-.06-.17-.17-.59-1.36-1.49-2.04-2.7-2.04-2.09,0-4.47,1.72-7.15,5.17-2.68,3.37-4.01,5.98-4.01,7.81,0,.7,.18,1.05,.55,1.05,1.65,0,5.12-3.72,10.4-11.17-.04,.04,0,.03,.08-.03,.09-.05,.17-.08,.25-.08,.18,0,.57,.18,1.15,.55,.59,.33,.88,.62,.88,.88-.29,.48-.55,.95-.77,1.43-.59,1.25-1.04,2.47-1.35,3.66-.31,1.19-.47,2.23-.47,3.11,0,1.94,.48,2.92,1.43,2.92l.55-.11,.11,.06c0,.33-.46,.49-1.38,.49s-1.61-.4-2.2-1.21c-.55-.84-.83-1.96-.83-3.35s.24-2.86,.71-4.51c-.04,.11-.17,.31-.38,.6-.22,.29-.57,.81-1.04,1.54-3.01,4.66-5.37,6.98-7.09,6.98Z"/>
  <path class="cls-1" d="M102.39,41.9c-1.1,0-1.65-.26-1.65-.77,.55-5.9,.83-9.39,.83-10.45,0-3.04-.46-4.58-1.38-4.62-.07,.04-.19,.2-.36,.5-.17,.29-.3,.44-.41,.44-.33,0-.49-.26-.49-.77,0-.73,.6-1.1,1.81-1.1,2.31,0,3.46,2.04,3.46,6.11,0,.18-.03,.57-.08,1.15-.05,.59-.16,1.39-.3,2.42,0,.15,.07,.22,.22,.22,.07,0,.15-.06,.22-.19,.07-.13,.13-.21,.17-.25,2.57-3.63,4.91-6.53,7.04-8.69,2.16-2.2,3.74-3.3,4.73-3.3,.44,0,.66,.2,.66,.6,0,.18-.05,.33-.17,.44-2.13,1.25-4.49,3.28-7.09,6.1-2.53,2.71-4.47,5.89-5.83,9.52-.44,1.76-.9,2.64-1.38,2.64Z"/>
  <path class="cls-1" d="M131.16,44.98c-1.03,0-1.54-.83-1.54-2.48,0-3.19,1.27-7.28,3.79-12.27,1.28-2.49,2.73-4.94,4.35-7.34,1.61-2.4,3.37-4.72,5.28-6.96v-.06c-8.87,.7-15.75,2.82-20.62,6.38,.04-.04,0-.03-.08,.03-.09,.05-.17,.08-.25,.08-.59,0-.88-.46-.88-1.38s.75-1.74,2.25-2.47c6.27-3.01,13.09-4.51,20.46-4.51,4.66,0,8.3,.68,10.94,2.04,2.64,1.36,3.96,3.26,3.96,5.72s-1.78,4.69-5.33,6.71c-3.48,2.02-7.08,3.02-10.78,3.02-1.94,0-3.96-.37-6.05-1.1-1.21,1.72-2.4,4.09-3.58,7.09-1.21,3.01-1.81,5.21-1.81,6.6l.11,.66c0,.15-.07,.22-.22,.22Zm8.69-15.02c.95,0,2.05-.1,3.3-.3,1.25-.2,2.68-.56,4.29-1.07,1.39-.48,2.71-1.04,3.96-1.68,1.25-.64,2.33-1.31,3.25-2.01,2.02-1.54,3.03-3.04,3.03-4.51,0-3.01-4.57-4.51-13.7-4.51,.95,.62,1.43,.95,1.43,.99-5.61,7.85-8.42,12.1-8.42,12.76,.29,.07,.69,.15,1.18,.22,.5,.07,1.05,.11,1.68,.11Z"/>
  <path class="cls-1" d="M158.55,41.67c-.73,0-1.4-.34-2.01-1.02-.61-.68-.91-1.55-.91-2.61s.64-2.71,1.92-4.95c1.28-2.2,2.86-4.18,4.73-5.94,1.83-1.72,3.41-2.58,4.73-2.58h.55c1.36,0,2.51,.27,3.46,.8,.95,.53,1.43,1.24,1.43,2.12,0,.4-.17,.6-.5,.6-.11,0-.17-.06-.17-.17-.59-1.36-1.49-2.04-2.7-2.04-2.09,0-4.47,1.72-7.15,5.17-2.68,3.37-4.01,5.98-4.01,7.81,0,.7,.18,1.05,.55,1.05,1.65,0,5.12-3.72,10.4-11.17-.04,.04,0,.03,.08-.03,.09-.05,.17-.08,.25-.08,.18,0,.57,.18,1.15,.55,.59,.33,.88,.62,.88,.88-.29,.48-.55,.95-.77,1.43-.59,1.25-1.04,2.47-1.35,3.66-.31,1.19-.47,2.23-.47,3.11,0,1.94,.48,2.92,1.43,2.92l.55-.11,.11,.06c0,.33-.46,.49-1.38,.49s-1.61-.4-2.2-1.21c-.55-.84-.83-1.96-.83-3.35s.24-2.86,.71-4.51c-.04,.11-.17,.31-.38,.6-.22,.29-.57,.81-1.04,1.54-3.01,4.66-5.37,6.98-7.09,6.98Z"/>
  <path class="cls-1" d="M176.42,42.28c-1.61,0-2.42-.86-2.42-2.58,0-1.54,.51-3.56,1.54-6.05,.4-.95,.81-1.91,1.21-2.86,.4-.95,.86-2.03,1.38-3.24-1.25-.48-1.87-1.19-1.87-2.15,0-.29,.07-.5,.22-.6,.55,.26,1.39,.44,2.53,.55,1.21-2.71,1.82-4.44,1.82-5.17,0-.81-.15-1.21-.44-1.21l-1.1,.27c-.11,0-.17-.06-.17-.17,0-.29,.22-.52,.66-.69s.77-.25,.99-.25c1.61,0,2.42,.92,2.42,2.75,0,1.06-.33,2.46-.99,4.18,.15,.15,.81,.22,1.98,.22s2.13-.13,2.75-.38c.59-.29,1.01-.44,1.26-.44,.11,0,.17,.04,.17,.11,0,.11-.09,.26-.28,.44-.77,.66-1.68,1.23-2.72,1.71-1.04,.48-2.25,.81-3.6,.99h-.16s-.09,0-.17,.03c-.07,.02-.22,.06-.44,.14-3.34,6.64-5,10.85-5,12.65,0,.59,.22,.88,.66,.88l1.54-.33,.05,.06c0,.77-.61,1.15-1.82,1.15Z"/>
  <path class="cls-1" d="M186.87,42.06c-1.39,0-2.09-1.01-2.09-3.03,0-3.04,1.1-7.06,3.3-12.04,0-.15,.1-.42,.3-.82,.2-.4,.36-.66,.47-.77,.26-.26,.61-.39,1.04-.39,1.28,0,1.98,.26,2.09,.77-.59,.95-1.15,2.05-1.68,3.3-.53,1.25-1.05,2.62-1.57,4.12-.55,1.61-.95,2.94-1.18,3.99-.24,1.04-.36,1.88-.36,2.5,0,.92,.24,1.38,.71,1.38,.33,0,.75-.2,1.26-.6,.4-.33,.69-.57,.85-.71,.17-.15,.32-.27,.47-.39,.15,0,.22,.07,.22,.22,0,.4-.53,.92-1.59,1.54-1.06,.62-1.82,.94-2.25,.94Zm5.28-20.02c-.81,0-1.47-.22-1.98-.66,.7-.48,1.44-1.1,2.23-1.87,.79-.77,1.6-1.69,2.45-2.75,.07,0,.11,.09,.11,.27l-.28,1.6c-.18,1.14-.51,1.99-.99,2.56-.48,.57-.99,.85-1.54,.85Z"/>
  <path class="cls-1" d="M196.16,41.73c-1.76,0-2.64-1.47-2.64-4.4,0-1.87,.59-4.95,1.76-9.24,1.17-4.33,2.66-8.31,4.46-11.94,1.83-3.7,3.45-5.55,4.84-5.55,.81,0,1.61,.27,2.42,.8,.81,.53,1.21,1.11,1.21,1.73,0,2.64-3.89,8.51-11.66,17.6-.29,1.36-.52,2.62-.69,3.79-.17,1.17-.25,2.27-.25,3.3,0,2.02,.44,3.03,1.32,3.03l.88-.28c.18,0,.28,.09,.28,.28,0,.59-.64,.88-1.92,.88Zm.77-12.43c6.64-8.65,9.96-14.1,9.96-16.33,0-.44-.13-.66-.38-.66-1.1,0-2.7,1.96-4.79,5.89-2.09,3.92-3.69,7.63-4.79,11.11Z"/>
</svg>