<?xml version="1.0" encoding="UTF-8"?>
<svg id="Layer_1" data-name="Layer 1" xmlns="http://www.w3.org/2000/svg" viewBox="0 0 210 55">
  <defs>
    <style>
      .cls-1 {
        stroke-width: 0px;
      }
    </style>
  </defs>
  <path class="cls-1" d="m23.19,23.23c-.16-.74-.44-1.45-.83-2.15-.39-.69-.89-1.32-1.5-1.88s-1.32-1-2.13-1.33c-.81-.33-1.72-.49-2.73-.49-1.54,0-2.91.4-4.1,1.21-1.19.81-2.12,1.95-2.79,3.44-.67,1.49-1.01,3.25-1.01,5.28s.33,3.76,1,5.25c.67,1.49,1.6,2.64,2.81,3.46,1.2.81,2.6,1.22,4.2,1.22,1.43,0,2.69-.33,3.8-.99,1.1-.66,1.97-1.6,2.58-2.83.62-1.23.92-2.7.91-4.41l.47.22h-7.42v-1.24h8.25v1.24c0,1.92-.37,3.58-1.1,4.97s-1.75,2.46-3.05,3.2-2.78,1.12-4.44,1.12c-1.88,0-3.51-.47-4.91-1.4-1.4-.93-2.48-2.24-3.25-3.92s-1.16-3.65-1.16-5.9c0-1.69.22-3.22.66-4.6s1.07-2.56,1.89-3.54c.82-.98,1.79-1.74,2.92-2.27,1.13-.53,2.38-.79,3.74-.79,1.24,0,2.35.2,3.33.61.99.41,1.84.96,2.56,1.64s1.31,1.45,1.75,2.29.75,1.7.91,2.57h-1.36Z"/>
  <path class="cls-1" d="m28.58,38.23h-1.41l7.87-21.82h1.53l7.87,21.82h-1.41l-7.18-20.1h-.11l-7.18,20.1Zm1.99-8.21h10.48v1.24h-10.48v-1.24Z"/>
  <path class="cls-1" d="m63.28,16.42h1.33v14.45c0,1.48-.34,2.81-1.03,3.97-.69,1.16-1.64,2.08-2.85,2.75-1.21.67-2.6,1.01-4.17,1.01s-2.95-.34-4.17-1.01c-1.21-.67-2.17-1.59-2.86-2.75-.69-1.16-1.04-2.49-1.03-3.96v-14.45h1.33v14.37c0,1.26.29,2.38.86,3.36s1.36,1.75,2.37,2.32c1.01.56,2.17.85,3.5.85s2.49-.28,3.49-.85c1.01-.56,1.8-1.34,2.37-2.32s.86-2.1.86-3.36v-14.37Z"/>
  <path class="cls-1" d="m70.92,38.23v-21.82h6.72c1.38,0,2.56.27,3.56.81.99.54,1.76,1.29,2.29,2.24.53.96.8,2.07.8,3.33s-.27,2.35-.8,3.3c-.53.95-1.29,1.69-2.29,2.22-.99.53-2.18.8-3.55.8h-6.02v-1.25h5.99c1.12,0,2.08-.21,2.88-.63.8-.42,1.41-1.01,1.83-1.76.43-.76.64-1.65.64-2.68s-.21-1.94-.64-2.71c-.43-.77-1.04-1.37-1.84-1.8-.8-.43-1.76-.64-2.88-.64h-5.36v20.58h-1.33Zm8.96-9.89l5.37,9.89h-1.53l-5.34-9.89h1.5Z"/>
  <path class="cls-1" d="m88.78,38.23h-1.41l7.87-21.82h1.53l7.87,21.82h-1.41l-7.18-20.1h-.11l-7.18,20.1Zm1.99-8.21h10.48v1.24h-10.48v-1.24Z"/>
  <path class="cls-1" d="m105.82,16.42l7.16,20.1h.15l7.16-20.1h1.41l-7.87,21.82h-1.53l-7.87-21.82h1.41Z"/>
  <path class="cls-1" d="m134.19,38.23v-21.82h6.72c1.38,0,2.57.28,3.56.85.99.57,1.75,1.35,2.29,2.33.53.99.8,2.11.8,3.38s-.27,2.37-.8,3.36c-.53.99-1.29,1.77-2.29,2.34-.99.57-2.17.86-3.55.86h-5.8v-1.24h5.76c1.12,0,2.08-.23,2.88-.69.79-.46,1.41-1.09,1.83-1.89.43-.8.64-1.71.64-2.74s-.21-1.96-.64-2.76c-.43-.8-1.04-1.43-1.84-1.89s-1.76-.68-2.88-.68h-5.36v20.58h-1.33Z"/>
  <path class="cls-1" d="m149.62,38.23h-1.41l7.87-21.82h1.53l7.87,21.82h-1.41l-7.18-20.1h-.11l-7.18,20.1Zm1.99-8.21h10.48v1.24h-10.48v-1.24Z"/>
  <path class="cls-1" d="m165.55,17.65v-1.24h15.29v1.24h-6.98v20.58h-1.33v-20.58h-6.98Z"/>
  <path class="cls-1" d="m187.02,16.42v21.82h-1.33v-21.82h1.33Z"/>
  <path class="cls-1" d="m193.33,38.23v-21.82h1.33v20.58h10.65v1.24h-11.99Z"/>
</svg>