<?xml version="1.0" encoding="UTF-8"?>
<svg id="Layer_1" data-name="Layer 1" xmlns="http://www.w3.org/2000/svg" viewBox="0 0 123 55">
  <defs>
    <style>
      .cls-1 {
        stroke-width: 0px;
      }
    </style>
  </defs>
  <path class="cls-1" d="m43.83,23.41c-.16-.74-.44-1.45-.83-2.15-.39-.69-.89-1.32-1.5-1.88s-1.32-1-2.13-1.33c-.81-.33-1.72-.49-2.73-.49-1.54,0-2.91.4-4.1,1.21-1.19.81-2.12,1.95-2.79,3.44-.67,1.49-1.01,3.25-1.01,5.28s.33,3.76,1,5.25,1.6,2.64,2.81,3.46c1.2.81,2.61,1.22,4.2,1.22,1.43,0,2.69-.33,3.8-.99,1.1-.66,1.97-1.61,2.58-2.83.62-1.23.92-2.7.91-4.41l.47.22h-7.42v-1.24h8.25v1.24c0,1.92-.37,3.58-1.1,4.97-.74,1.39-1.75,2.46-3.05,3.2-1.3.75-2.78,1.12-4.44,1.12-1.88,0-3.51-.46-4.91-1.4s-2.48-2.24-3.25-3.92-1.16-3.65-1.16-5.9c0-1.69.22-3.22.66-4.6s1.07-2.56,1.89-3.54,1.79-1.74,2.92-2.27c1.13-.53,2.38-.79,3.74-.79,1.24,0,2.35.21,3.33.61.99.41,1.84.96,2.56,1.64s1.3,1.45,1.75,2.29c.45.84.75,1.7.91,2.57h-1.36Z"/>
  <path class="cls-1" d="m51.5,38.55c-.32,0-.59-.11-.81-.34-.22-.22-.34-.5-.34-.82s.11-.58.34-.81c.22-.23.5-.34.81-.34s.58.11.81.34c.23.23.34.5.34.81,0,.21-.05.41-.15.58s-.24.31-.42.42c-.17.1-.37.16-.58.16Z"/>
  <path class="cls-1" d="m58.56,38.41v-21.82h1.33v12.67h.15l11.51-12.67h1.77l-9.47,10.32,9.39,11.5h-1.66l-8.58-10.54-3.1,3.43v7.11h-1.33Z"/>
  <path class="cls-1" d="m78.16,38.55c-.32,0-.59-.11-.81-.34-.22-.22-.34-.5-.34-.82s.11-.58.34-.81c.22-.23.5-.34.81-.34s.58.11.81.34c.23.23.34.5.34.81,0,.21-.05.41-.15.58s-.24.31-.42.42c-.17.1-.37.16-.58.16Z"/>
  <path class="cls-1" d="m85.21,38.41v-21.82h6.72c1.39,0,2.57.28,3.56.85s1.75,1.35,2.29,2.33.8,2.11.8,3.38-.27,2.37-.8,3.36c-.53.99-1.29,1.77-2.29,2.34s-2.18.86-3.55.86h-5.8v-1.24h5.76c1.12,0,2.08-.23,2.88-.69.8-.46,1.41-1.09,1.83-1.89.43-.8.64-1.71.64-2.74s-.21-1.96-.64-2.76c-.43-.8-1.04-1.43-1.84-1.88-.8-.46-1.76-.68-2.88-.68h-5.36v20.58h-1.33Z"/>
</svg>