<?xml version="1.0" encoding="UTF-8"?>
<svg id="Layer_1" data-name="Layer 1" xmlns="http://www.w3.org/2000/svg" viewBox="0 0 123 55">
  <path d="M18.41,50.29c-.66,0-.99-.17-.99-.5,0-.15,.24-.29,.72-.44,.84-.29,1.49-.55,1.95-.77,.46-.22,.76-.37,.91-.44,1.47-1.28,2.95-3.2,4.46-5.75,1.5-2.55,3.01-5.71,4.51-9.49-5.06,5.35-10.29,8.03-15.67,8.03-2.93,0-5.26-.79-6.99-2.36-1.72-1.61-2.58-3.67-2.58-6.16,0-1.32,.17-2.62,.52-3.9,.35-1.28,.82-2.48,1.4-3.58,1.32-2.46,3.03-4.69,5.14-6.71,2.11-2.02,4.59-3.67,7.45-4.95,1.58-.73,3.11-1.25,4.59-1.54,1.48-.29,2.85-.44,4.1-.44,1.06,0,2.04,.09,2.94,.28,.9,.18,1.68,.42,2.34,.71l.99-1.71c.59-.81,1.32-1.21,2.2-1.21s1.26,.18,1.26,.55c0,.07-.42,.53-1.26,1.38-.48,.48-.82,.82-1.02,1.02s-.45,.45-.74,.74c.48,.29,.89,.61,1.24,.96,.35,.35,.52,.56,.52,.63,0,.04-.25,.35-.74,.93-.49,.59-.98,1.19-1.46,1.82-1.32,1.69-2,2.77-2.04,3.24l.17,.17c0,.18-.09,.27-.28,.27-.55,0-.82-.55-.82-1.65,0-2.09,.51-4.18,1.54-6.27-1.36-.7-2.86-1.04-4.51-1.04-3.3,0-6.64,1.04-10.01,3.14-3.3,2.02-6.05,4.56-8.25,7.65-1.1,1.58-1.91,3.08-2.42,4.51-.51,1.43-.77,2.79-.77,4.07,0,2.35,.8,4.29,2.39,5.83,1.59,1.54,3.75,2.31,6.46,2.31,4.33,0,9.02-2.88,14.08-8.63,.48-.51,.87-.96,1.18-1.35,.31-.39,.54-.71,.69-.96l.55-1.6c-2.9,.59-5.25,1.02-7.07,1.29s-3.09,.41-3.82,.41c-.44,0-.84-.22-1.21-.66-.37-.44-.55-1.01-.55-1.71,0-.15,.07-.22,.22-.22l3.25,.33c4.18,0,7.37-.11,9.57-.33,.22-.73,.51-1.1,.88-1.1,.18,0,.4,.06,.66,.19,.26,.13,.57,.3,.94,.52l1.65-.27c.29,0,.44,.11,.44,.33,0,.18-.61,.39-1.82,.6-2.64,6.67-5.59,12.3-8.85,16.89-3.23,4.62-5.9,6.93-8.03,6.93Zm13.75-31.29c.29-.37,.68-.91,1.16-1.62,.48-.71,1.06-1.6,1.76-2.67l-.6-.55c-1.17,1.87-1.94,3.48-2.31,4.84Z"/>
  <path d="M41.01,38.57c-.51,0-.77-.2-.77-.6,0-.15,.02-.32,.06-.52,.04-.2,.05-.41,.05-.63,0-.4,.2-.74,.6-1.02,.4-.28,.86-.41,1.38-.41,.44,0,.77,.18,.99,.55,.22,.37,.33,.72,.33,1.04,0,.22-.17,.46-.52,.72-.35,.26-.73,.47-1.16,.63s-.74,.25-.96,.25Z"/>
  <path d="M48.49,42.42c-.55,0-1.03-.32-1.43-.96-.4-.64-.61-1.64-.61-3,0-4.47,2.6-11.26,7.81-20.35,1.36-2.79,2.31-4.18,2.86-4.18,.4,0,.86,.12,1.38,.36,.51,.24,.77,.43,.77,.58l-1.1,1.71c-.22,.37-.5,.83-.85,1.38-.35,.55-.71,1.14-1.07,1.76-5.61,9.72-8.42,16.35-8.42,19.91,0,.48,.13,1.03,.39,1.65,.29,.77,.38,1.16,.27,1.16Zm19.42,1.38c-2.31,0-4.65-1.05-7.01-3.16-2.36-2.11-4.5-4.9-6.41-8.39-1.32-2.82-1.98-4.25-1.98-4.29,0-.11,.13-.35,.38-.71,.33-.37,.57-.55,.71-.55,.18,0,.28,.13,.28,.38,1.03-.73,2.01-1.47,2.94-2.2,.93-.73,2.14-1.78,3.6-3.14l4.89-4.46c2.31-1.87,4.18-3.11,5.61-3.71s2.68-.91,3.74-.91,2.03,.13,2.8,.39c.81,.26,1.21,.53,1.21,.83,0,.22-.18,.33-.55,.33-.48-.15-.87-.25-1.18-.3-.31-.06-.54-.08-.69-.08-1.69,0-3.72,.79-6.11,2.36-1.32,.88-2.71,1.85-4.18,2.92-1.47,1.06-3.12,2.29-4.95,3.69l-6.76,5.17c2.05,4.25,4.58,7.7,7.59,10.34,3.01,2.68,5.48,4.01,7.42,4.01,.99,0,1.49-.46,1.49-1.38s-.92-2.68-2.75-5.39l.11-.11c.22,0,.6,.28,1.15,.83,1.76,1.69,2.64,3.23,2.64,4.62,0,.84-.38,1.54-1.13,2.09-.75,.55-1.71,.83-2.89,.83Z"/>
  <path d="M75.39,38.57c-.51,0-.77-.2-.77-.6,0-.15,.02-.32,.05-.52,.04-.2,.05-.41,.05-.63,0-.4,.2-.74,.61-1.02,.4-.28,.86-.41,1.38-.41,.44,0,.77,.18,.99,.55,.22,.37,.33,.72,.33,1.04,0,.22-.17,.46-.52,.72-.35,.26-.73,.47-1.16,.63-.42,.17-.74,.25-.96,.25Z"/>
  <path d="M90.68,42.15c-1.03,0-1.54-.83-1.54-2.48,0-3.19,1.26-7.28,3.79-12.27,1.28-2.49,2.73-4.94,4.34-7.34,1.61-2.4,3.37-4.72,5.28-6.96v-.06c-8.87,.7-15.75,2.82-20.62,6.38,.04-.04,0-.03-.08,.03-.09,.05-.17,.08-.25,.08-.59,0-.88-.46-.88-1.38s.75-1.74,2.25-2.47c6.27-3.01,13.09-4.51,20.46-4.51,4.66,0,8.3,.68,10.95,2.04,2.64,1.36,3.96,3.26,3.96,5.72s-1.78,4.69-5.33,6.71c-3.48,2.02-7.08,3.02-10.78,3.02-1.94,0-3.96-.37-6.05-1.1-1.21,1.72-2.4,4.09-3.58,7.09-1.21,3.01-1.82,5.21-1.82,6.6l.11,.66c0,.15-.07,.22-.22,.22Zm8.69-15.02c.95,0,2.05-.1,3.3-.3,1.25-.2,2.68-.56,4.29-1.07,1.39-.48,2.71-1.04,3.96-1.68,1.25-.64,2.33-1.31,3.24-2.01,2.02-1.54,3.03-3.04,3.03-4.51,0-3.01-4.57-4.51-13.7-4.51,.95,.62,1.43,.95,1.43,.99-5.61,7.85-8.42,12.1-8.42,12.76,.29,.07,.69,.15,1.18,.22,.49,.07,1.05,.11,1.68,.11Z"/>
</svg>