<svg width="24" height="24" viewBox="0 0 24 24" fill="none" xmlns="http://www.w3.org/2000/svg">
<path fill-rule="evenodd" clip-rule="evenodd" d="M21 7H3C2.4475 7 2 6.552 2 6C2 5.448 2.4475 5 3 5H21C21.552 5 22 5.448 22 6C22 6.552 21.552 7 21 7ZM21 13.5H3C2.4475 13.5 2 13.052 2 12.5C2 11.9475 2.4475 11.5 3 11.5H21C21.552 11.5 22 11.9475 22 12.5C22 13.052 21.552 13.5 21 13.5ZM3 20H21C21.552 20 22 19.552 22 19C22 18.4475 21.552 18 21 18H3C2.4475 18 2 18.4475 2 19C2 19.552 2.4475 20 3 20Z" fill="#FF8949"/>
</svg>
