<svg width="24" height="24" viewBox="0 0 24 24" fill="none" xmlns="http://www.w3.org/2000/svg">
<path d="M22.9246 3.56416L3.56436 22.9244C2.97011 23.5187 2.00693 23.5182 1.41322 22.9244C0.819503 22.3307 0.818965 21.3676 1.41322 20.7733L20.7735 1.41302C21.3672 0.819302 22.3309 0.819302 22.9246 1.41302C23.5184 2.00673 23.5184 2.97045 22.9246 3.56416" fill="#FF8949"/>
<path d="M20.4361 22.587L1.0758 3.22671C0.481542 2.63246 0.48208 1.66929 1.0758 1.07557C1.66951 0.481856 2.63269 0.481318 3.22694 1.07557L22.5872 20.4359C23.1809 21.0296 23.1809 21.9933 22.5872 22.587C21.9935 23.1807 21.0298 23.1807 20.4361 22.587" fill="#FF8949"/>
</svg>
