<svg width="24" height="24" viewBox="0 0 24 24" fill="none" xmlns="http://www.w3.org/2000/svg">
<path d="M22.9245 3.56416L3.56424 22.9244C2.96999 23.5187 2.00681 23.5182 1.4131 22.9244C0.819381 22.3307 0.818843 21.3676 1.4131 20.7733L20.7734 1.41302C21.3671 0.819302 22.3308 0.819302 22.9245 1.41302C23.5182 2.00673 23.5182 2.97045 22.9245 3.56416" fill="white"/>
<path d="M20.436 22.587L1.07567 3.22671C0.48142 2.63246 0.481958 1.66929 1.07567 1.07557C1.66939 0.481856 2.63256 0.481318 3.22682 1.07557L22.5871 20.4359C23.1808 21.0296 23.1808 21.9933 22.5871 22.587C21.9934 23.1807 21.0297 23.1807 20.436 22.587" fill="white"/>
</svg>
