<svg width="1512" height="982" viewBox="0 0 1512 982" fill="none" xmlns="http://www.w3.org/2000/svg">
<rect width="1512" height="982" fill="white"/>
<path d="M179.44 269V267.72C180.891 267.635 181.979 267.464 182.704 267.208C183.472 266.952 183.984 266.44 184.24 265.672C184.496 264.904 184.624 263.752 184.624 262.216V230.472C184.624 228.893 184.496 227.741 184.24 227.016C183.984 226.248 183.472 225.736 182.704 225.48C181.979 225.181 180.891 225.011 179.44 224.968V223.688C180.421 223.731 181.659 223.773 183.152 223.816C184.645 223.859 186.117 223.88 187.568 223.88C189.232 223.88 190.789 223.859 192.24 223.816C193.691 223.773 194.864 223.731 195.76 223.688V224.968C194.309 225.011 193.2 225.181 192.432 225.48C191.707 225.736 191.216 226.248 190.96 227.016C190.704 227.741 190.576 228.893 190.576 230.472V262.216C190.576 263.752 190.704 264.904 190.96 265.672C191.216 266.44 191.707 266.952 192.432 267.208C193.2 267.464 194.309 267.635 195.76 267.72V269C194.864 268.915 193.691 268.872 192.24 268.872C190.789 268.829 189.232 268.808 187.568 268.808C186.117 268.808 184.645 268.829 183.152 268.872C181.659 268.872 180.421 268.915 179.44 269ZM152.688 269V267.72C154.139 267.635 155.227 267.464 155.952 267.208C156.72 266.952 157.232 266.44 157.488 265.672C157.744 264.904 157.872 263.752 157.872 262.216V230.472C157.872 228.893 157.744 227.741 157.488 227.016C157.232 226.248 156.72 225.736 155.952 225.48C155.227 225.181 154.139 225.011 152.688 224.968V223.688C153.584 223.731 154.757 223.773 156.208 223.816C157.659 223.859 159.216 223.88 160.88 223.88C162.373 223.88 163.845 223.859 165.296 223.816C166.789 223.773 168.027 223.731 169.008 223.688V224.968C167.557 225.011 166.448 225.181 165.68 225.48C164.955 225.736 164.464 226.248 164.208 227.016C163.952 227.741 163.824 228.893 163.824 230.472V262.216C163.824 263.752 163.952 264.904 164.208 265.672C164.464 266.44 164.955 266.952 165.68 267.208C166.448 267.464 167.557 267.635 169.008 267.72V269C168.027 268.915 166.789 268.872 165.296 268.872C163.845 268.829 162.373 268.808 160.88 268.808C159.216 268.808 157.659 268.829 156.208 268.872C154.757 268.872 153.584 268.915 152.688 269ZM161.584 246.856V245.576H186.864V246.856H161.584ZM207.59 220.04C208.699 220.04 209.659 220.445 210.47 221.256C211.28 222.067 211.686 223.027 211.686 224.136C211.686 225.245 211.28 226.205 210.47 227.016C209.659 227.827 208.699 228.232 207.59 228.232C206.48 228.232 205.52 227.827 204.71 227.016C203.899 226.205 203.494 225.245 203.494 224.136C203.494 223.027 203.899 222.067 204.71 221.256C205.52 220.445 206.48 220.04 207.59 220.04ZM210.918 235.336V263.048C210.918 264.84 211.28 266.056 212.006 266.696C212.774 267.336 214.032 267.656 215.782 267.656V269C215.056 268.957 213.947 268.915 212.454 268.872C211.003 268.787 209.531 268.744 208.038 268.744C206.587 268.744 205.115 268.787 203.622 268.872C202.128 268.915 201.019 268.957 200.294 269V267.656C202.043 267.656 203.28 267.336 204.006 266.696C204.774 266.056 205.158 264.84 205.158 263.048V243.016C205.158 241.096 204.816 239.688 204.134 238.792C203.451 237.853 202.171 237.384 200.294 237.384V236.04C201.659 236.168 202.982 236.232 204.262 236.232C205.499 236.232 206.672 236.168 207.782 236.04C208.934 235.869 209.979 235.635 210.918 235.336ZM244.473 225.416V236.104H253.945V237.384H244.473V262.152C244.473 264.157 244.835 265.565 245.561 266.376C246.286 267.187 247.289 267.592 248.569 267.592C249.849 267.592 250.958 267.08 251.897 266.056C252.835 264.989 253.646 263.219 254.329 260.744L255.609 261.064C255.182 263.539 254.329 265.629 253.049 267.336C251.811 269.043 249.891 269.896 247.289 269.896C245.838 269.896 244.643 269.704 243.705 269.32C242.766 268.979 241.934 268.467 241.209 267.784C240.27 266.803 239.609 265.629 239.225 264.264C238.883 262.899 238.713 261.085 238.713 258.824V237.384H232.569V236.104H238.713V226.312C239.779 226.269 240.803 226.184 241.785 226.056C242.766 225.928 243.662 225.715 244.473 225.416ZM266.842 218.888V242.824C267.951 239.923 269.487 237.917 271.45 236.808C273.455 235.699 275.546 235.144 277.722 235.144C279.343 235.144 280.687 235.357 281.754 235.784C282.863 236.211 283.78 236.808 284.506 237.576C285.316 238.429 285.892 239.496 286.234 240.776C286.575 242.056 286.746 243.784 286.746 245.96V263.048C286.746 264.84 287.108 266.056 287.833 266.696C288.602 267.336 289.86 267.656 291.61 267.656V269C290.884 268.957 289.775 268.915 288.282 268.872C286.788 268.787 285.338 268.744 283.93 268.744C282.522 268.744 281.135 268.787 279.77 268.872C278.447 268.915 277.444 268.957 276.762 269V267.656C278.298 267.656 279.386 267.336 280.026 266.696C280.666 266.056 280.986 264.84 280.986 263.048V244.552C280.986 243.229 280.879 242.013 280.666 240.904C280.452 239.795 279.962 238.899 279.194 238.216C278.468 237.533 277.338 237.192 275.802 237.192C274.052 237.192 272.495 237.683 271.13 238.664C269.807 239.645 268.762 241.011 267.994 242.76C267.226 244.509 266.842 246.515 266.842 248.776V263.048C266.842 264.84 267.162 266.056 267.802 266.696C268.442 267.336 269.53 267.656 271.066 267.656V269C270.383 268.957 269.359 268.915 267.994 268.872C266.671 268.787 265.306 268.744 263.898 268.744C262.49 268.744 261.039 268.787 259.546 268.872C258.052 268.915 256.943 268.957 256.218 269V267.656C257.967 267.656 259.204 267.336 259.93 266.696C260.698 266.056 261.082 264.84 261.082 263.048V226.568C261.082 224.648 260.74 223.24 260.058 222.344C259.375 221.405 258.095 220.936 256.218 220.936V219.592C257.583 219.72 258.906 219.784 260.186 219.784C261.423 219.784 262.596 219.72 263.706 219.592C264.858 219.421 265.903 219.187 266.842 218.888ZM309.971 235.144C313.725 235.144 316.648 236.296 318.739 238.6C320.872 240.861 321.939 244.403 321.939 249.224H299.347L299.283 248.008H315.795C315.88 245.917 315.709 243.997 315.283 242.248C314.856 240.456 314.173 239.027 313.235 237.96C312.339 236.893 311.165 236.36 309.715 236.36C307.752 236.36 306.003 237.341 304.467 239.304C302.973 241.267 302.077 244.381 301.779 248.648L301.97 248.904C301.885 249.544 301.821 250.248 301.779 251.016C301.736 251.784 301.715 252.552 301.715 253.32C301.715 256.221 302.184 258.717 303.123 260.808C304.061 262.899 305.277 264.499 306.771 265.608C308.307 266.675 309.885 267.208 311.507 267.208C312.787 267.208 314.003 267.016 315.155 266.632C316.307 266.205 317.373 265.523 318.355 264.584C319.336 263.645 320.189 262.387 320.915 260.808L322.195 261.32C321.725 262.728 320.957 264.093 319.891 265.416C318.824 266.739 317.48 267.827 315.859 268.68C314.237 269.491 312.36 269.896 310.227 269.896C307.155 269.896 304.509 269.192 302.291 267.784C300.115 266.376 298.429 264.435 297.235 261.96C296.083 259.443 295.507 256.563 295.507 253.32C295.507 249.565 296.104 246.344 297.299 243.656C298.493 240.925 300.179 238.835 302.355 237.384C304.531 235.891 307.069 235.144 309.971 235.144ZM346.698 235.144C347.85 235.144 348.852 235.379 349.706 235.848C350.602 236.317 351.284 236.936 351.754 237.704C352.266 238.429 352.522 239.261 352.522 240.2C352.522 241.267 352.18 242.205 351.498 243.016C350.858 243.827 349.983 244.232 348.874 244.232C347.978 244.232 347.188 243.955 346.506 243.4C345.823 242.803 345.482 241.971 345.482 240.904C345.482 240.093 345.695 239.411 346.122 238.856C346.591 238.259 347.103 237.789 347.658 237.448C347.359 237.021 346.911 236.808 346.314 236.808C344.991 236.808 343.775 237.213 342.666 238.024C341.556 238.792 340.618 239.795 339.85 241.032C339.082 242.269 338.484 243.592 338.058 245C337.631 246.365 337.418 247.645 337.418 248.84V262.408C337.418 264.499 338.015 265.907 339.21 266.632C340.447 267.315 342.111 267.656 344.202 267.656V269C343.22 268.957 341.834 268.915 340.042 268.872C338.25 268.787 336.351 268.744 334.345 268.744C332.895 268.744 331.444 268.787 329.994 268.872C328.586 268.915 327.519 268.957 326.794 269V267.656C328.543 267.656 329.78 267.336 330.506 266.696C331.274 266.056 331.658 264.84 331.658 263.048V243.016C331.658 241.096 331.316 239.688 330.634 238.792C329.951 237.853 328.671 237.384 326.794 237.384V236.04C328.159 236.168 329.482 236.232 330.762 236.232C331.999 236.232 333.172 236.168 334.282 236.04C335.434 235.869 336.479 235.635 337.418 235.336V243.336C337.887 242.099 338.548 240.861 339.402 239.624C340.298 238.344 341.364 237.277 342.602 236.424C343.839 235.571 345.204 235.144 346.698 235.144ZM369.596 235.144C373.35 235.144 376.273 236.296 378.364 238.6C380.497 240.861 381.564 244.403 381.564 249.224H358.972L358.908 248.008H375.42C375.505 245.917 375.334 243.997 374.908 242.248C374.481 240.456 373.798 239.027 372.86 237.96C371.964 236.893 370.79 236.36 369.34 236.36C367.377 236.36 365.628 237.341 364.092 239.304C362.598 241.267 361.702 244.381 361.404 248.648L361.595 248.904C361.51 249.544 361.446 250.248 361.404 251.016C361.361 251.784 361.34 252.552 361.34 253.32C361.34 256.221 361.809 258.717 362.748 260.808C363.686 262.899 364.902 264.499 366.396 265.608C367.932 266.675 369.51 267.208 371.132 267.208C372.412 267.208 373.628 267.016 374.78 266.632C375.932 266.205 376.998 265.523 377.98 264.584C378.961 263.645 379.814 262.387 380.54 260.808L381.82 261.32C381.35 262.728 380.582 264.093 379.516 265.416C378.449 266.739 377.105 267.827 375.484 268.68C373.862 269.491 371.985 269.896 369.852 269.896C366.78 269.896 364.134 269.192 361.916 267.784C359.74 266.376 358.054 264.435 356.86 261.96C355.708 259.443 355.132 256.563 355.132 253.32C355.132 249.565 355.729 246.344 356.924 243.656C358.118 240.925 359.804 238.835 361.98 237.384C364.156 235.891 366.694 235.144 369.596 235.144ZM392.947 218.952C393.757 218.952 394.44 219.229 394.995 219.784C395.592 220.339 395.891 221.256 395.891 222.536C395.891 224.2 395.763 226.269 395.507 228.744C395.293 231.219 395.016 233.971 394.675 237C394.376 239.987 394.099 243.144 393.843 246.472C393.629 249.757 393.523 253.085 393.523 256.456H392.371C392.371 253.085 392.243 249.757 391.987 246.472C391.773 243.144 391.496 239.987 391.155 237C390.856 233.971 390.579 231.219 390.323 228.744C390.109 226.269 390.003 224.2 390.003 222.536C390.003 221.256 390.28 220.339 390.835 219.784C391.432 219.229 392.136 218.952 392.947 218.952ZM392.947 261.704C394.056 261.704 395.016 262.109 395.827 262.92C396.637 263.731 397.043 264.691 397.043 265.8C397.043 266.909 396.637 267.869 395.827 268.68C395.016 269.491 394.056 269.896 392.947 269.896C391.837 269.896 390.877 269.491 390.067 268.68C389.256 267.869 388.851 266.909 388.851 265.8C388.851 264.691 389.256 263.731 390.067 262.92C390.877 262.109 391.837 261.704 392.947 261.704Z" fill="black"/>
<path d="M169.008 328.688V329.968C167.557 330.011 166.448 330.181 165.68 330.48C164.955 330.736 164.464 331.248 164.208 332.016C163.952 332.741 163.824 333.893 163.824 335.472V367.216C163.824 368.752 163.952 369.904 164.208 370.672C164.464 371.44 164.955 371.952 165.68 372.208C166.448 372.464 167.557 372.635 169.008 372.72V374C168.027 373.915 166.789 373.872 165.296 373.872C163.845 373.829 162.373 373.808 160.88 373.808C159.216 373.808 157.659 373.829 156.208 373.872C154.757 373.872 153.584 373.915 152.688 374V372.72C154.139 372.635 155.227 372.464 155.952 372.208C156.72 371.952 157.232 371.44 157.488 370.672C157.744 369.904 157.872 368.752 157.872 367.216V335.472C157.872 333.893 157.744 332.741 157.488 332.016C157.232 331.248 156.72 330.736 155.952 330.48C155.227 330.181 154.139 330.011 152.688 329.968V328.688C153.584 328.731 154.757 328.773 156.208 328.816C157.659 328.859 159.216 328.88 160.88 328.88C162.373 328.88 163.845 328.859 165.296 328.816C166.789 328.773 168.027 328.731 169.008 328.688ZM198.569 374.448C196.82 374.448 195.305 374.128 194.025 373.488C192.745 372.805 191.764 371.867 191.081 370.672C190.441 369.477 190.121 368.091 190.121 366.512C190.121 364.635 190.548 363.099 191.401 361.904C192.297 360.709 193.428 359.749 194.793 359.024C196.158 358.299 197.588 357.701 199.081 357.232C200.617 356.72 202.068 356.251 203.433 355.824C204.798 355.355 205.908 354.821 206.761 354.224C207.657 353.627 208.105 352.837 208.105 351.856V347.888C208.105 346.096 207.828 344.731 207.273 343.792C206.761 342.853 206.057 342.235 205.161 341.936C204.265 341.595 203.262 341.424 202.153 341.424C201.086 341.424 199.934 341.573 198.697 341.872C197.502 342.171 196.542 342.789 195.817 343.728C196.628 343.899 197.332 344.325 197.929 345.008C198.526 345.691 198.825 346.565 198.825 347.632C198.825 348.699 198.484 349.552 197.801 350.192C197.118 350.789 196.244 351.088 195.177 351.088C193.94 351.088 193.022 350.704 192.425 349.936C191.87 349.125 191.593 348.229 191.593 347.248C191.593 346.139 191.87 345.243 192.425 344.56C192.98 343.877 193.684 343.237 194.537 342.64C195.518 341.957 196.777 341.381 198.313 340.912C199.892 340.4 201.662 340.144 203.625 340.144C205.374 340.144 206.868 340.357 208.105 340.784C209.342 341.168 210.366 341.744 211.177 342.512C212.286 343.536 213.012 344.795 213.353 346.288C213.694 347.739 213.865 349.488 213.865 351.536V369.328C213.865 370.395 214.014 371.163 214.313 371.632C214.654 372.101 215.166 372.336 215.849 372.336C216.318 372.336 216.766 372.229 217.193 372.016C217.62 371.803 218.132 371.461 218.729 370.992L219.433 372.08C218.537 372.763 217.684 373.339 216.873 373.808C216.062 374.235 214.974 374.448 213.609 374.448C212.372 374.448 211.348 374.235 210.537 373.808C209.726 373.381 209.108 372.763 208.681 371.952C208.297 371.099 208.105 370.032 208.105 368.752C206.953 370.672 205.566 372.101 203.945 373.04C202.366 373.979 200.574 374.448 198.569 374.448ZM200.873 371.888C202.281 371.888 203.582 371.483 204.777 370.672C206.014 369.861 207.124 368.645 208.105 367.024V354.48C207.593 355.205 206.846 355.824 205.865 356.336C204.884 356.805 203.817 357.296 202.665 357.808C201.513 358.277 200.404 358.853 199.337 359.536C198.313 360.176 197.46 361.029 196.777 362.096C196.094 363.163 195.753 364.549 195.753 366.256C195.753 367.963 196.201 369.328 197.097 370.352C198.036 371.376 199.294 371.888 200.873 371.888ZM242.476 340.144C243.969 340.144 245.271 340.357 246.38 340.784C247.489 341.211 248.407 341.808 249.132 342.576C249.943 343.429 250.497 344.539 250.796 345.904C251.095 347.269 251.244 348.955 251.244 350.96V368.048C251.244 369.84 251.607 371.056 252.332 371.696C253.1 372.336 254.359 372.656 256.108 372.656V374C255.383 373.957 254.273 373.915 252.78 373.872C251.287 373.787 249.836 373.744 248.428 373.744C247.02 373.744 245.633 373.787 244.268 373.872C242.945 373.915 241.943 373.957 241.26 374V372.656C242.796 372.656 243.884 372.336 244.524 371.696C245.164 371.056 245.484 369.84 245.484 368.048V349.552C245.484 348.229 245.399 347.013 245.228 345.904C245.057 344.795 244.631 343.899 243.948 343.216C243.265 342.533 242.156 342.192 240.62 342.192C238.956 342.192 237.463 342.704 236.14 343.728C234.86 344.752 233.836 346.16 233.068 347.952C232.343 349.701 231.98 351.664 231.98 353.84V368.048C231.98 369.84 232.3 371.056 232.94 371.696C233.58 372.336 234.668 372.656 236.204 372.656V374C235.521 373.957 234.497 373.915 233.132 373.872C231.809 373.787 230.444 373.744 229.036 373.744C227.628 373.744 226.177 373.787 224.684 373.872C223.191 373.915 222.081 373.957 221.356 374V372.656C223.105 372.656 224.343 372.336 225.068 371.696C225.836 371.056 226.22 369.84 226.22 368.048V348.016C226.22 346.096 225.879 344.688 225.196 343.792C224.513 342.853 223.233 342.384 221.356 342.384V341.04C222.721 341.168 224.044 341.232 225.324 341.232C226.561 341.232 227.735 341.168 228.844 341.04C229.996 340.869 231.041 340.635 231.98 340.336V347.888C233.089 345.115 234.604 343.131 236.524 341.936C238.444 340.741 240.428 340.144 242.476 340.144ZM261.74 340.144C263.233 340.144 264.535 340.357 265.644 340.784C266.753 341.211 267.671 341.808 268.396 342.576C269.207 343.429 269.761 344.539 270.06 345.904C270.359 347.269 270.508 348.955 270.508 350.96V368.048C270.508 369.84 270.871 371.056 271.596 371.696C272.364 372.336 273.623 372.656 275.372 372.656V374C274.647 373.957 273.537 373.915 272.044 373.872C270.551 373.787 269.1 373.744 267.692 373.744C266.284 373.744 264.897 373.787 263.532 373.872C262.209 373.915 261.207 373.957 260.524 374V372.656C262.06 372.656 263.148 372.336 263.788 371.696C264.428 371.056 264.748 369.84 264.748 368.048V349.552C264.748 348.229 264.663 347.013 264.492 345.904C264.321 344.795 263.895 343.899 263.212 343.216C262.529 342.533 261.42 342.192 259.884 342.192C258.22 342.192 256.727 342.704 255.404 343.728C254.124 344.752 253.1 346.139 252.332 347.888C251.607 349.637 251.244 351.6 251.244 353.776L251.052 347.824C252.204 344.88 253.761 342.875 255.724 341.808C257.687 340.699 259.692 340.144 261.74 340.144ZM316.314 327.792C319.087 327.792 321.327 328.219 323.034 329.072C324.741 329.883 326.341 330.843 327.834 331.952C328.389 332.379 328.815 332.592 329.114 332.592C329.925 332.592 330.458 331.291 330.714 328.688H332.186C332.101 330.267 332.037 332.187 331.994 334.448C331.951 336.709 331.93 339.696 331.93 343.408H330.458C330.159 341.616 329.797 339.888 329.37 338.224C328.943 336.56 328.239 335.131 327.258 333.936C326.021 332.357 324.399 331.141 322.394 330.288C320.389 329.392 318.319 328.944 316.186 328.944C314.053 328.944 312.111 329.477 310.362 330.544C308.655 331.568 307.183 333.061 305.946 335.024C304.709 336.987 303.749 339.355 303.066 342.128C302.426 344.859 302.106 347.952 302.106 351.408C302.106 359.088 303.343 364.72 305.818 368.304C308.293 371.845 312.133 373.616 317.338 373.616C318.874 373.616 320.197 373.403 321.306 372.976C322.458 372.507 323.354 372.059 323.994 371.632C324.805 371.077 325.317 370.565 325.53 370.096C325.743 369.584 325.85 368.923 325.85 368.112V361.968C325.85 360.219 325.679 358.917 325.338 358.064C324.997 357.211 324.357 356.635 323.418 356.336C322.522 356.037 321.178 355.867 319.386 355.824V354.544C320.154 354.587 321.05 354.629 322.074 354.672C323.098 354.672 324.165 354.693 325.274 354.736C326.426 354.736 327.471 354.736 328.41 354.736C329.818 354.736 331.077 354.715 332.186 354.672C333.338 354.629 334.298 354.587 335.066 354.544V355.824C334.127 355.867 333.423 356.016 332.954 356.272C332.485 356.528 332.165 357.04 331.994 357.808C331.866 358.576 331.802 359.749 331.802 361.328V374H330.522C330.479 373.275 330.309 372.485 330.01 371.632C329.754 370.779 329.349 370.352 328.794 370.352C328.538 370.352 328.282 370.416 328.026 370.544C327.77 370.672 327.322 370.971 326.682 371.44C325.274 372.507 323.781 373.36 322.202 374C320.623 374.597 318.789 374.896 316.698 374.896C312.303 374.896 308.527 374 305.37 372.208C302.255 370.373 299.866 367.749 298.202 364.336C296.538 360.923 295.706 356.848 295.706 352.112C295.706 347.12 296.602 342.811 298.394 339.184C300.186 335.557 302.618 332.763 305.69 330.8C308.805 328.795 312.346 327.792 316.314 327.792ZM347.882 374.448C346.132 374.448 344.618 374.128 343.338 373.488C342.058 372.805 341.076 371.867 340.394 370.672C339.754 369.477 339.434 368.091 339.434 366.512C339.434 364.635 339.86 363.099 340.714 361.904C341.61 360.709 342.74 359.749 344.106 359.024C345.471 358.299 346.9 357.701 348.394 357.232C349.93 356.72 351.38 356.251 352.746 355.824C354.111 355.355 355.22 354.821 356.074 354.224C356.97 353.627 357.418 352.837 357.418 351.856V347.888C357.418 346.096 357.14 344.731 356.586 343.792C356.074 342.853 355.37 342.235 354.474 341.936C353.578 341.595 352.575 341.424 351.466 341.424C350.399 341.424 349.247 341.573 348.01 341.872C346.815 342.171 345.855 342.789 345.13 343.728C345.94 343.899 346.644 344.325 347.242 345.008C347.839 345.691 348.138 346.565 348.138 347.632C348.138 348.699 347.796 349.552 347.114 350.192C346.431 350.789 345.556 351.088 344.49 351.088C343.252 351.088 342.335 350.704 341.738 349.936C341.183 349.125 340.906 348.229 340.906 347.248C340.906 346.139 341.183 345.243 341.738 344.56C342.292 343.877 342.996 343.237 343.85 342.64C344.831 341.957 346.09 341.381 347.626 340.912C349.204 340.4 350.975 340.144 352.938 340.144C354.687 340.144 356.18 340.357 357.418 340.784C358.655 341.168 359.679 341.744 360.49 342.512C361.599 343.536 362.324 344.795 362.666 346.288C363.007 347.739 363.178 349.488 363.178 351.536V369.328C363.178 370.395 363.327 371.163 363.626 371.632C363.967 372.101 364.479 372.336 365.162 372.336C365.631 372.336 366.079 372.229 366.506 372.016C366.932 371.803 367.444 371.461 368.042 370.992L368.746 372.08C367.85 372.763 366.996 373.339 366.186 373.808C365.375 374.235 364.287 374.448 362.922 374.448C361.684 374.448 360.66 374.235 359.85 373.808C359.039 373.381 358.42 372.763 357.994 371.952C357.61 371.099 357.418 370.032 357.418 368.752C356.266 370.672 354.879 372.101 353.258 373.04C351.679 373.979 349.887 374.448 347.882 374.448ZM350.186 371.888C351.594 371.888 352.895 371.483 354.09 370.672C355.327 369.861 356.436 368.645 357.418 367.024V354.48C356.906 355.205 356.159 355.824 355.178 356.336C354.196 356.805 353.13 357.296 351.978 357.808C350.826 358.277 349.716 358.853 348.65 359.536C347.626 360.176 346.772 361.029 346.09 362.096C345.407 363.163 345.066 364.549 345.066 366.256C345.066 367.963 345.514 369.328 346.41 370.352C347.348 371.376 348.607 371.888 350.186 371.888ZM399.725 340.336V367.088C399.725 369.008 400.066 370.437 400.749 371.376C401.474 372.272 402.754 372.72 404.589 372.72V374.064C403.266 373.936 401.943 373.872 400.621 373.872C399.383 373.872 398.189 373.936 397.037 374.064C395.927 374.192 394.903 374.427 393.965 374.768V367.216C392.898 369.989 391.383 371.973 389.421 373.168C387.501 374.32 385.517 374.896 383.469 374.896C381.975 374.896 380.674 374.683 379.565 374.256C378.455 373.829 377.538 373.232 376.812 372.464C376.002 371.611 375.447 370.501 375.149 369.136C374.85 367.771 374.701 366.085 374.701 364.08V348.016C374.701 346.096 374.359 344.688 373.677 343.792C372.994 342.853 371.714 342.384 369.837 342.384V341.04C371.202 341.168 372.525 341.232 373.805 341.232C375.042 341.232 376.215 341.168 377.325 341.04C378.477 340.869 379.522 340.635 380.461 340.336V365.488C380.461 366.811 380.546 368.027 380.717 369.136C380.887 370.245 381.314 371.141 381.997 371.824C382.679 372.507 383.789 372.848 385.325 372.848C386.989 372.848 388.461 372.336 389.741 371.312C391.063 370.288 392.087 368.901 392.813 367.152C393.581 365.403 393.965 363.44 393.965 361.264V348.016C393.965 346.096 393.623 344.688 392.941 343.792C392.258 342.853 390.978 342.384 389.101 342.384V341.04C390.466 341.168 391.789 341.232 393.069 341.232C394.306 341.232 395.479 341.168 396.589 341.04C397.741 340.869 398.786 340.635 399.725 340.336ZM427.76 340.144C428.912 340.144 429.915 340.379 430.768 340.848C431.664 341.317 432.347 341.936 432.816 342.704C433.328 343.429 433.584 344.261 433.584 345.2C433.584 346.267 433.243 347.205 432.56 348.016C431.92 348.827 431.045 349.232 429.936 349.232C429.04 349.232 428.251 348.955 427.568 348.4C426.885 347.803 426.544 346.971 426.544 345.904C426.544 345.093 426.757 344.411 427.184 343.856C427.653 343.259 428.165 342.789 428.72 342.448C428.421 342.021 427.973 341.808 427.376 341.808C426.053 341.808 424.837 342.213 423.728 343.024C422.619 343.792 421.68 344.795 420.912 346.032C420.144 347.269 419.547 348.592 419.12 350C418.693 351.365 418.48 352.645 418.48 353.84V367.408C418.48 369.499 419.077 370.907 420.272 371.632C421.509 372.315 423.173 372.656 425.264 372.656V374C424.283 373.957 422.896 373.915 421.104 373.872C419.312 373.787 417.413 373.744 415.408 373.744C413.957 373.744 412.507 373.787 411.056 373.872C409.648 373.915 408.581 373.957 407.856 374V372.656C409.605 372.656 410.843 372.336 411.568 371.696C412.336 371.056 412.72 369.84 412.72 368.048V348.016C412.72 346.096 412.379 344.688 411.696 343.792C411.013 342.853 409.733 342.384 407.856 342.384V341.04C409.221 341.168 410.544 341.232 411.824 341.232C413.061 341.232 414.235 341.168 415.344 341.04C416.496 340.869 417.541 340.635 418.48 340.336V348.336C418.949 347.099 419.611 345.861 420.464 344.624C421.36 343.344 422.427 342.277 423.664 341.424C424.901 340.571 426.267 340.144 427.76 340.144ZM445.444 374.448C443.695 374.448 442.18 374.128 440.9 373.488C439.62 372.805 438.639 371.867 437.956 370.672C437.316 369.477 436.996 368.091 436.996 366.512C436.996 364.635 437.423 363.099 438.276 361.904C439.172 360.709 440.303 359.749 441.668 359.024C443.033 358.299 444.463 357.701 445.956 357.232C447.492 356.72 448.943 356.251 450.308 355.824C451.673 355.355 452.783 354.821 453.636 354.224C454.532 353.627 454.98 352.837 454.98 351.856V347.888C454.98 346.096 454.703 344.731 454.148 343.792C453.636 342.853 452.932 342.235 452.036 341.936C451.14 341.595 450.137 341.424 449.028 341.424C447.961 341.424 446.809 341.573 445.572 341.872C444.377 342.171 443.417 342.789 442.692 343.728C443.503 343.899 444.207 344.325 444.804 345.008C445.401 345.691 445.7 346.565 445.7 347.632C445.7 348.699 445.359 349.552 444.676 350.192C443.993 350.789 443.119 351.088 442.052 351.088C440.815 351.088 439.897 350.704 439.3 349.936C438.745 349.125 438.468 348.229 438.468 347.248C438.468 346.139 438.745 345.243 439.3 344.56C439.855 343.877 440.559 343.237 441.412 342.64C442.393 341.957 443.652 341.381 445.188 340.912C446.767 340.4 448.537 340.144 450.5 340.144C452.249 340.144 453.743 340.357 454.98 340.784C456.217 341.168 457.241 341.744 458.052 342.512C459.161 343.536 459.887 344.795 460.228 346.288C460.569 347.739 460.74 349.488 460.74 351.536V369.328C460.74 370.395 460.889 371.163 461.188 371.632C461.529 372.101 462.041 372.336 462.724 372.336C463.193 372.336 463.641 372.229 464.068 372.016C464.495 371.803 465.007 371.461 465.604 370.992L466.308 372.08C465.412 372.763 464.559 373.339 463.748 373.808C462.937 374.235 461.849 374.448 460.484 374.448C459.247 374.448 458.223 374.235 457.412 373.808C456.601 373.381 455.983 372.763 455.556 371.952C455.172 371.099 454.98 370.032 454.98 368.752C453.828 370.672 452.441 372.101 450.82 373.04C449.241 373.979 447.449 374.448 445.444 374.448ZM447.748 371.888C449.156 371.888 450.457 371.483 451.652 370.672C452.889 369.861 453.999 368.645 454.98 367.024V354.48C454.468 355.205 453.721 355.824 452.74 356.336C451.759 356.805 450.692 357.296 449.54 357.808C448.388 358.277 447.279 358.853 446.212 359.536C445.188 360.176 444.335 361.029 443.652 362.096C442.969 363.163 442.628 364.549 442.628 366.256C442.628 367.963 443.076 369.328 443.972 370.352C444.911 371.376 446.169 371.888 447.748 371.888ZM497.167 341.04V342.32C496.356 342.405 495.609 342.768 494.927 343.408C494.244 344.048 493.604 345.179 493.007 346.8L482.51 374.32C482.34 374.32 482.169 374.32 481.999 374.32C481.828 374.32 481.636 374.32 481.423 374.32L469.647 345.968C468.964 344.304 468.281 343.301 467.599 342.96C466.959 342.576 466.404 342.384 465.934 342.384V341.04C466.788 341.083 467.663 341.147 468.559 341.232C469.497 341.275 470.5 341.296 471.567 341.296C472.889 341.296 474.276 341.275 475.727 341.232C477.22 341.189 478.607 341.125 479.887 341.04V342.384C478.82 342.384 477.86 342.469 477.007 342.64C476.196 342.768 475.663 343.173 475.407 343.856C475.193 344.539 475.407 345.712 476.047 347.376L484.047 367.152L483.663 367.472L490.959 348.336C491.513 346.928 491.727 345.819 491.599 345.008C491.513 344.155 491.087 343.515 490.319 343.088C489.593 342.661 488.463 342.405 486.927 342.32V341.04C487.695 341.083 488.356 341.125 488.911 341.168C489.465 341.168 489.999 341.189 490.511 341.232C491.065 341.232 491.663 341.232 492.303 341.232C493.284 341.232 494.159 341.211 494.927 341.168C495.737 341.125 496.484 341.083 497.167 341.04ZM514.313 328.688C515.209 328.731 516.382 328.773 517.833 328.816C519.284 328.859 520.713 328.88 522.121 328.88C524.126 328.88 526.046 328.859 527.881 328.816C529.716 328.773 531.017 328.752 531.785 328.752C536.948 328.752 540.809 329.925 543.369 332.272C545.929 334.619 547.209 337.648 547.209 341.36C547.209 342.896 546.953 344.517 546.441 346.224C545.929 347.888 545.033 349.445 543.753 350.896C542.516 352.304 540.809 353.456 538.633 354.352C536.457 355.248 533.705 355.696 530.377 355.696H524.233V354.416H529.737C532.766 354.416 535.07 353.84 536.649 352.688C538.27 351.536 539.358 350.021 539.913 348.144C540.51 346.267 540.809 344.24 540.809 342.064C540.809 338.011 539.998 334.981 538.377 332.976C536.798 330.971 534.068 329.968 530.185 329.968C528.222 329.968 526.942 330.331 526.345 331.056C525.748 331.781 525.449 333.253 525.449 335.472V367.216C525.449 368.752 525.598 369.904 525.897 370.672C526.238 371.44 526.878 371.952 527.817 372.208C528.756 372.464 530.121 372.635 531.913 372.72V374C530.804 373.915 529.396 373.872 527.689 373.872C525.982 373.829 524.254 373.808 522.505 373.808C520.841 373.808 519.284 373.829 517.833 373.872C516.382 373.872 515.209 373.915 514.313 374V372.72C515.764 372.635 516.852 372.464 517.577 372.208C518.345 371.952 518.857 371.44 519.113 370.672C519.369 369.904 519.497 368.752 519.497 367.216V335.472C519.497 333.893 519.369 332.741 519.113 332.016C518.857 331.248 518.345 330.736 517.577 330.48C516.852 330.181 515.764 330.011 514.313 329.968V328.688ZM559.569 374.448C557.82 374.448 556.305 374.128 555.025 373.488C553.745 372.805 552.764 371.867 552.081 370.672C551.441 369.477 551.121 368.091 551.121 366.512C551.121 364.635 551.548 363.099 552.401 361.904C553.297 360.709 554.428 359.749 555.793 359.024C557.158 358.299 558.588 357.701 560.081 357.232C561.617 356.72 563.068 356.251 564.433 355.824C565.798 355.355 566.908 354.821 567.761 354.224C568.657 353.627 569.105 352.837 569.105 351.856V347.888C569.105 346.096 568.828 344.731 568.273 343.792C567.761 342.853 567.057 342.235 566.161 341.936C565.265 341.595 564.262 341.424 563.153 341.424C562.086 341.424 560.934 341.573 559.697 341.872C558.502 342.171 557.542 342.789 556.817 343.728C557.628 343.899 558.332 344.325 558.929 345.008C559.526 345.691 559.825 346.565 559.825 347.632C559.825 348.699 559.484 349.552 558.801 350.192C558.118 350.789 557.244 351.088 556.177 351.088C554.94 351.088 554.022 350.704 553.425 349.936C552.87 349.125 552.593 348.229 552.593 347.248C552.593 346.139 552.87 345.243 553.425 344.56C553.98 343.877 554.684 343.237 555.537 342.64C556.518 341.957 557.777 341.381 559.313 340.912C560.892 340.4 562.662 340.144 564.625 340.144C566.374 340.144 567.868 340.357 569.105 340.784C570.342 341.168 571.366 341.744 572.177 342.512C573.286 343.536 574.012 344.795 574.353 346.288C574.694 347.739 574.865 349.488 574.865 351.536V369.328C574.865 370.395 575.014 371.163 575.313 371.632C575.654 372.101 576.166 372.336 576.849 372.336C577.318 372.336 577.766 372.229 578.193 372.016C578.62 371.803 579.132 371.461 579.729 370.992L580.433 372.08C579.537 372.763 578.684 373.339 577.873 373.808C577.062 374.235 575.974 374.448 574.609 374.448C573.372 374.448 572.348 374.235 571.537 373.808C570.726 373.381 570.108 372.763 569.681 371.952C569.297 371.099 569.105 370.032 569.105 368.752C567.953 370.672 566.566 372.101 564.945 373.04C563.366 373.979 561.574 374.448 559.569 374.448ZM561.873 371.888C563.281 371.888 564.582 371.483 565.777 370.672C567.014 369.861 568.124 368.645 569.105 367.024V354.48C568.593 355.205 567.846 355.824 566.865 356.336C565.884 356.805 564.817 357.296 563.665 357.808C562.513 358.277 561.404 358.853 560.337 359.536C559.313 360.176 558.46 361.029 557.777 362.096C557.094 363.163 556.753 364.549 556.753 366.256C556.753 367.963 557.201 369.328 558.097 370.352C559.036 371.376 560.294 371.888 561.873 371.888ZM592.66 330.416V341.104H602.132V342.384H592.66V367.152C592.66 369.157 593.023 370.565 593.748 371.376C594.473 372.187 595.476 372.592 596.756 372.592C598.036 372.592 599.145 372.08 600.084 371.056C601.023 369.989 601.833 368.219 602.516 365.744L603.796 366.064C603.369 368.539 602.516 370.629 601.236 372.336C599.999 374.043 598.079 374.896 595.476 374.896C594.025 374.896 592.831 374.704 591.892 374.32C590.953 373.979 590.121 373.467 589.396 372.784C588.457 371.803 587.796 370.629 587.412 369.264C587.071 367.899 586.9 366.085 586.9 363.824V342.384H580.756V341.104H586.9V331.312C587.967 331.269 588.991 331.184 589.972 331.056C590.953 330.928 591.849 330.715 592.66 330.416ZM612.277 325.04C613.386 325.04 614.346 325.445 615.157 326.256C615.968 327.067 616.373 328.027 616.373 329.136C616.373 330.245 615.968 331.205 615.157 332.016C614.346 332.827 613.386 333.232 612.277 333.232C611.168 333.232 610.208 332.827 609.397 332.016C608.586 331.205 608.181 330.245 608.181 329.136C608.181 328.027 608.586 327.067 609.397 326.256C610.208 325.445 611.168 325.04 612.277 325.04ZM615.605 340.336V368.048C615.605 369.84 615.968 371.056 616.693 371.696C617.461 372.336 618.72 372.656 620.469 372.656V374C619.744 373.957 618.634 373.915 617.141 373.872C615.69 373.787 614.218 373.744 612.725 373.744C611.274 373.744 609.802 373.787 608.309 373.872C606.816 373.915 605.706 373.957 604.981 374V372.656C606.73 372.656 607.968 372.336 608.693 371.696C609.461 371.056 609.845 369.84 609.845 368.048V348.016C609.845 346.096 609.504 344.688 608.821 343.792C608.138 342.853 606.858 342.384 604.981 342.384V341.04C606.346 341.168 607.669 341.232 608.949 341.232C610.186 341.232 611.36 341.168 612.469 341.04C613.621 340.869 614.666 340.635 615.605 340.336ZM633.907 323.824V368.048C633.907 369.84 634.27 371.056 634.995 371.696C635.763 372.336 637.022 372.656 638.771 372.656V374C638.046 373.957 636.936 373.915 635.443 373.872C633.992 373.787 632.52 373.744 631.027 373.744C629.576 373.744 628.104 373.787 626.611 373.872C625.118 373.915 624.008 373.957 623.283 374V372.656C625.032 372.656 626.27 372.336 626.995 371.696C627.763 371.056 628.147 369.84 628.147 368.048V331.504C628.147 329.584 627.806 328.176 627.123 327.28C626.44 326.341 625.16 325.872 623.283 325.872V324.528C624.648 324.656 625.971 324.72 627.251 324.72C628.488 324.72 629.662 324.656 630.771 324.528C631.923 324.357 632.968 324.123 633.907 323.824Z" fill="black"/>
<path d="M208.048 473.688V474.968C207.237 475.139 206.341 475.629 205.36 476.44C204.379 477.208 203.589 478.573 202.992 480.536L190.896 519.32C190.811 519.32 190.725 519.32 190.64 519.32C190.555 519.32 190.469 519.32 190.384 519.32C190.299 519.32 190.213 519.32 190.128 519.32C190.043 519.32 189.957 519.32 189.872 519.32L176.304 479.064C175.749 477.4 175.131 476.312 174.448 475.8C173.765 475.288 173.125 475.011 172.528 474.968V473.688C173.296 473.731 174.256 473.773 175.408 473.816C176.56 473.859 177.669 473.88 178.736 473.88C180.4 473.88 181.957 473.859 183.408 473.816C184.859 473.773 186.032 473.731 186.928 473.688V474.968C185.648 475.011 184.624 475.139 183.856 475.352C183.131 475.565 182.704 476.035 182.576 476.76C182.491 477.485 182.704 478.68 183.216 480.344L192.752 509.848L191.856 510.616L200.304 484.056C201.072 481.709 201.413 479.896 201.328 478.616C201.285 477.293 200.816 476.376 199.92 475.864C199.024 475.309 197.68 475.011 195.888 474.968V473.688C197.125 473.731 198.384 473.773 199.664 473.816C200.944 473.859 202.139 473.88 203.248 473.88C204.357 473.88 205.275 473.859 206 473.816C206.725 473.773 207.408 473.731 208.048 473.688ZM163.312 473.688V474.968C162.203 475.053 161.392 475.267 160.88 475.608C160.411 475.949 160.176 476.504 160.176 477.272C160.219 477.997 160.453 479.021 160.88 480.344L170.8 510.616L169.2 512.216L178.16 483.608L179.12 485.144L168.56 519.32C168.475 519.32 168.389 519.32 168.304 519.32C168.219 519.32 168.133 519.32 168.048 519.32C167.963 519.32 167.877 519.32 167.792 519.32C167.707 519.32 167.621 519.32 167.536 519.32L153.968 479.064C153.413 477.4 152.709 476.312 151.856 475.8C151.003 475.288 150.235 475.011 149.552 474.968V473.688C150.405 473.731 151.451 473.773 152.688 473.816C153.968 473.859 155.205 473.88 156.4 473.88C157.808 473.88 159.109 473.859 160.304 473.816C161.541 473.773 162.544 473.731 163.312 473.688ZM220.908 485.144C224.663 485.144 227.585 486.296 229.676 488.6C231.809 490.861 232.876 494.403 232.876 499.224H210.284L210.22 498.008H226.732C226.817 495.917 226.647 493.997 226.22 492.248C225.793 490.456 225.111 489.027 224.172 487.96C223.276 486.893 222.103 486.36 220.652 486.36C218.689 486.36 216.94 487.341 215.404 489.304C213.911 491.267 213.015 494.381 212.716 498.648L212.908 498.904C212.823 499.544 212.759 500.248 212.716 501.016C212.673 501.784 212.652 502.552 212.652 503.32C212.652 506.221 213.121 508.717 214.06 510.808C214.999 512.899 216.215 514.499 217.708 515.608C219.244 516.675 220.823 517.208 222.444 517.208C223.724 517.208 224.94 517.016 226.092 516.632C227.244 516.205 228.311 515.523 229.292 514.584C230.273 513.645 231.127 512.387 231.852 510.808L233.132 511.32C232.663 512.728 231.895 514.093 230.828 515.416C229.761 516.739 228.417 517.827 226.796 518.68C225.175 519.491 223.297 519.896 221.164 519.896C218.092 519.896 215.447 519.192 213.228 517.784C211.052 516.376 209.367 514.435 208.172 511.96C207.02 509.443 206.444 506.563 206.444 503.32C206.444 499.565 207.041 496.344 208.236 493.656C209.431 490.925 211.116 488.835 213.292 487.384C215.468 485.891 218.007 485.144 220.908 485.144ZM247.907 468.824V513.048C247.907 514.84 248.27 516.056 248.995 516.696C249.763 517.336 251.022 517.656 252.771 517.656V519C252.046 518.957 250.936 518.915 249.443 518.872C247.992 518.787 246.52 518.744 245.027 518.744C243.576 518.744 242.104 518.787 240.611 518.872C239.118 518.915 238.008 518.957 237.283 519V517.656C239.032 517.656 240.27 517.336 240.995 516.696C241.763 516.056 242.147 514.84 242.147 513.048V476.504C242.147 474.584 241.806 473.176 241.123 472.28C240.44 471.341 239.16 470.872 237.283 470.872V469.528C238.648 469.656 239.971 469.72 241.251 469.72C242.488 469.72 243.662 469.656 244.771 469.528C245.923 469.357 246.968 469.123 247.907 468.824ZM271.419 485.144C272.784 485.144 274.107 485.315 275.387 485.656C276.667 485.997 277.819 486.509 278.843 487.192C279.824 487.832 280.571 488.579 281.083 489.432C281.595 490.243 281.851 491.139 281.851 492.12C281.851 493.272 281.531 494.168 280.891 494.808C280.251 495.405 279.44 495.704 278.459 495.704C277.52 495.704 276.688 495.427 275.963 494.872C275.28 494.317 274.939 493.528 274.939 492.504C274.939 491.523 275.195 490.733 275.707 490.136C276.261 489.539 276.901 489.155 277.627 488.984C277.2 488.216 276.432 487.576 275.323 487.064C274.256 486.552 273.104 486.296 271.867 486.296C270.8 486.296 269.733 486.552 268.667 487.064C267.6 487.576 266.619 488.429 265.723 489.624C264.827 490.776 264.101 492.376 263.547 494.424C262.992 496.429 262.715 498.947 262.715 501.976C262.715 505.731 263.141 508.717 263.995 510.936C264.848 513.155 265.957 514.755 267.323 515.736C268.731 516.675 270.267 517.144 271.931 517.144C273.04 517.144 274.171 516.931 275.323 516.504C276.475 516.077 277.563 515.395 278.587 514.456C279.611 513.475 280.485 512.173 281.211 510.552L282.427 511C282 512.365 281.296 513.752 280.315 515.16C279.333 516.525 278.053 517.656 276.475 518.552C274.896 519.448 272.955 519.896 270.651 519.896C268.005 519.896 265.616 519.213 263.483 517.848C261.349 516.483 259.643 514.541 258.363 512.024C257.125 509.464 256.507 506.435 256.507 502.936C256.507 499.437 257.125 496.365 258.363 493.72C259.643 491.032 261.413 488.941 263.675 487.448C265.936 485.912 268.517 485.144 271.419 485.144ZM302.224 485.144C304.954 485.144 307.408 485.741 309.584 486.936C311.76 488.131 313.488 490.008 314.768 492.568C316.09 495.128 316.752 498.456 316.752 502.552C316.752 506.648 316.09 509.976 314.768 512.536C313.488 515.053 311.76 516.909 309.584 518.104C307.408 519.299 304.954 519.896 302.224 519.896C299.536 519.896 297.082 519.299 294.864 518.104C292.688 516.909 290.938 515.053 289.616 512.536C288.336 509.976 287.696 506.648 287.696 502.552C287.696 498.456 288.336 495.128 289.616 492.568C290.938 490.008 292.688 488.131 294.864 486.936C297.082 485.741 299.536 485.144 302.224 485.144ZM302.224 486.424C299.792 486.424 297.786 487.683 296.208 490.2C294.672 492.717 293.904 496.835 293.904 502.552C293.904 508.269 294.672 512.387 296.208 514.904C297.786 517.379 299.792 518.616 302.224 518.616C304.656 518.616 306.64 517.379 308.176 514.904C309.754 512.387 310.544 508.269 310.544 502.552C310.544 496.835 309.754 492.717 308.176 490.2C306.64 487.683 304.656 486.424 302.224 486.424ZM342.726 485.144C344.219 485.144 345.521 485.357 346.63 485.784C347.739 486.211 348.657 486.808 349.382 487.576C350.193 488.429 350.747 489.539 351.046 490.904C351.345 492.269 351.494 493.955 351.494 495.96V513.048C351.494 514.84 351.857 516.056 352.582 516.696C353.35 517.336 354.609 517.656 356.358 517.656V519C355.633 518.957 354.523 518.915 353.03 518.872C351.537 518.787 350.086 518.744 348.678 518.744C347.27 518.744 345.883 518.787 344.518 518.872C343.195 518.915 342.193 518.957 341.51 519V517.656C343.046 517.656 344.134 517.336 344.774 516.696C345.414 516.056 345.734 514.84 345.734 513.048V494.552C345.734 493.229 345.649 492.013 345.478 490.904C345.307 489.795 344.881 488.899 344.198 488.216C343.515 487.533 342.406 487.192 340.87 487.192C339.206 487.192 337.713 487.704 336.39 488.728C335.11 489.752 334.086 491.16 333.318 492.952C332.593 494.701 332.23 496.664 332.23 498.84V513.048C332.23 514.84 332.55 516.056 333.19 516.696C333.83 517.336 334.918 517.656 336.454 517.656V519C335.771 518.957 334.747 518.915 333.382 518.872C332.059 518.787 330.694 518.744 329.286 518.744C327.878 518.744 326.427 518.787 324.934 518.872C323.441 518.915 322.331 518.957 321.606 519V517.656C323.355 517.656 324.593 517.336 325.318 516.696C326.086 516.056 326.47 514.84 326.47 513.048V493.016C326.47 491.096 326.129 489.688 325.446 488.792C324.763 487.853 323.483 487.384 321.606 487.384V486.04C322.971 486.168 324.294 486.232 325.574 486.232C326.811 486.232 327.985 486.168 329.094 486.04C330.246 485.869 331.291 485.635 332.23 485.336V492.888C333.339 490.115 334.854 488.131 336.774 486.936C338.694 485.741 340.678 485.144 342.726 485.144ZM361.99 485.144C363.483 485.144 364.785 485.357 365.894 485.784C367.003 486.211 367.921 486.808 368.646 487.576C369.457 488.429 370.011 489.539 370.31 490.904C370.609 492.269 370.758 493.955 370.758 495.96V513.048C370.758 514.84 371.121 516.056 371.846 516.696C372.614 517.336 373.873 517.656 375.622 517.656V519C374.897 518.957 373.787 518.915 372.294 518.872C370.801 518.787 369.35 518.744 367.942 518.744C366.534 518.744 365.147 518.787 363.782 518.872C362.459 518.915 361.457 518.957 360.774 519V517.656C362.31 517.656 363.398 517.336 364.038 516.696C364.678 516.056 364.998 514.84 364.998 513.048V494.552C364.998 493.229 364.913 492.013 364.742 490.904C364.571 489.795 364.145 488.899 363.462 488.216C362.779 487.533 361.67 487.192 360.134 487.192C358.47 487.192 356.977 487.704 355.654 488.728C354.374 489.752 353.35 491.139 352.582 492.888C351.857 494.637 351.494 496.6 351.494 498.776L351.302 492.824C352.454 489.88 354.011 487.875 355.974 486.808C357.937 485.699 359.942 485.144 361.99 485.144ZM393.971 485.144C397.725 485.144 400.648 486.296 402.739 488.6C404.872 490.861 405.939 494.403 405.939 499.224H383.347L383.283 498.008H399.795C399.88 495.917 399.709 493.997 399.283 492.248C398.856 490.456 398.173 489.027 397.235 487.96C396.339 486.893 395.165 486.36 393.715 486.36C391.752 486.36 390.003 487.341 388.467 489.304C386.973 491.267 386.077 494.381 385.779 498.648L385.97 498.904C385.885 499.544 385.821 500.248 385.779 501.016C385.736 501.784 385.715 502.552 385.715 503.32C385.715 506.221 386.184 508.717 387.123 510.808C388.061 512.899 389.277 514.499 390.771 515.608C392.307 516.675 393.885 517.208 395.507 517.208C396.787 517.208 398.003 517.016 399.155 516.632C400.307 516.205 401.373 515.523 402.355 514.584C403.336 513.645 404.189 512.387 404.915 510.808L406.195 511.32C405.725 512.728 404.957 514.093 403.891 515.416C402.824 516.739 401.48 517.827 399.859 518.68C398.237 519.491 396.36 519.896 394.227 519.896C391.155 519.896 388.509 519.192 386.291 517.784C384.115 516.376 382.429 514.435 381.235 511.96C380.083 509.443 379.507 506.563 379.507 503.32C379.507 499.565 380.104 496.344 381.299 493.656C382.493 490.925 384.179 488.835 386.355 487.384C388.531 485.891 391.069 485.144 393.971 485.144Z" fill="#FF6F40"/>
</svg>
