<svg width="1512" height="982" viewBox="0 0 1512 982" fill="none" xmlns="http://www.w3.org/2000/svg">
<rect width="1512" height="982" fill="white"/>
<path d="M129.44 169V167.72C130.891 167.635 131.979 167.464 132.704 167.208C133.472 166.952 133.984 166.44 134.24 165.672C134.496 164.904 134.624 163.752 134.624 162.216V130.472C134.624 128.893 134.496 127.741 134.24 127.016C133.984 126.248 133.472 125.736 132.704 125.48C131.979 125.181 130.891 125.011 129.44 124.968V123.688C130.421 123.731 131.659 123.773 133.152 123.816C134.645 123.859 136.117 123.88 137.568 123.88C139.232 123.88 140.789 123.859 142.24 123.816C143.691 123.773 144.864 123.731 145.76 123.688V124.968C144.309 125.011 143.2 125.181 142.432 125.48C141.707 125.736 141.216 126.248 140.96 127.016C140.704 127.741 140.576 128.893 140.576 130.472V162.216C140.576 163.752 140.704 164.904 140.96 165.672C141.216 166.44 141.707 166.952 142.432 167.208C143.2 167.464 144.309 167.635 145.76 167.72V169C144.864 168.915 143.691 168.872 142.24 168.872C140.789 168.829 139.232 168.808 137.568 168.808C136.117 168.808 134.645 168.829 133.152 168.872C131.659 168.872 130.421 168.915 129.44 169ZM102.688 169V167.72C104.139 167.635 105.227 167.464 105.952 167.208C106.72 166.952 107.232 166.44 107.488 165.672C107.744 164.904 107.872 163.752 107.872 162.216V130.472C107.872 128.893 107.744 127.741 107.488 127.016C107.232 126.248 106.72 125.736 105.952 125.48C105.227 125.181 104.139 125.011 102.688 124.968V123.688C103.584 123.731 104.757 123.773 106.208 123.816C107.659 123.859 109.216 123.88 110.88 123.88C112.373 123.88 113.845 123.859 115.296 123.816C116.789 123.773 118.027 123.731 119.008 123.688V124.968C117.557 125.011 116.448 125.181 115.68 125.48C114.955 125.736 114.464 126.248 114.208 127.016C113.952 127.741 113.824 128.893 113.824 130.472V162.216C113.824 163.752 113.952 164.904 114.208 165.672C114.464 166.44 114.955 166.952 115.68 167.208C116.448 167.464 117.557 167.635 119.008 167.72V169C118.027 168.915 116.789 168.872 115.296 168.872C113.845 168.829 112.373 168.808 110.88 168.808C109.216 168.808 107.659 168.829 106.208 168.872C104.757 168.872 103.584 168.915 102.688 169ZM111.584 146.856V145.576H136.864V146.856H111.584ZM157.59 120.04C158.699 120.04 159.659 120.445 160.47 121.256C161.28 122.067 161.686 123.027 161.686 124.136C161.686 125.245 161.28 126.205 160.47 127.016C159.659 127.827 158.699 128.232 157.59 128.232C156.48 128.232 155.52 127.827 154.71 127.016C153.899 126.205 153.494 125.245 153.494 124.136C153.494 123.027 153.899 122.067 154.71 121.256C155.52 120.445 156.48 120.04 157.59 120.04ZM160.918 135.336V163.048C160.918 164.84 161.28 166.056 162.006 166.696C162.774 167.336 164.032 167.656 165.782 167.656V169C165.056 168.957 163.947 168.915 162.454 168.872C161.003 168.787 159.531 168.744 158.038 168.744C156.587 168.744 155.115 168.787 153.622 168.872C152.128 168.915 151.019 168.957 150.294 169V167.656C152.043 167.656 153.28 167.336 154.006 166.696C154.774 166.056 155.158 164.84 155.158 163.048V143.016C155.158 141.096 154.816 139.688 154.134 138.792C153.451 137.853 152.171 137.384 150.294 137.384V136.04C151.659 136.168 152.982 136.232 154.262 136.232C155.499 136.232 156.672 136.168 157.782 136.04C158.934 135.869 159.979 135.635 160.918 135.336ZM194.473 125.416V136.104H203.945V137.384H194.473V162.152C194.473 164.157 194.835 165.565 195.561 166.376C196.286 167.187 197.289 167.592 198.569 167.592C199.849 167.592 200.958 167.08 201.897 166.056C202.835 164.989 203.646 163.219 204.329 160.744L205.609 161.064C205.182 163.539 204.329 165.629 203.049 167.336C201.811 169.043 199.891 169.896 197.289 169.896C195.838 169.896 194.643 169.704 193.705 169.32C192.766 168.979 191.934 168.467 191.209 167.784C190.27 166.803 189.609 165.629 189.225 164.264C188.883 162.899 188.713 161.085 188.713 158.824V137.384H182.569V136.104H188.713V126.312C189.779 126.269 190.803 126.184 191.785 126.056C192.766 125.928 193.662 125.715 194.473 125.416ZM216.842 118.888V142.824C217.951 139.923 219.487 137.917 221.45 136.808C223.455 135.699 225.546 135.144 227.722 135.144C229.343 135.144 230.687 135.357 231.754 135.784C232.863 136.211 233.78 136.808 234.506 137.576C235.316 138.429 235.892 139.496 236.234 140.776C236.575 142.056 236.746 143.784 236.746 145.96V163.048C236.746 164.84 237.108 166.056 237.833 166.696C238.602 167.336 239.86 167.656 241.61 167.656V169C240.884 168.957 239.775 168.915 238.282 168.872C236.788 168.787 235.338 168.744 233.93 168.744C232.522 168.744 231.135 168.787 229.77 168.872C228.447 168.915 227.444 168.957 226.762 169V167.656C228.298 167.656 229.386 167.336 230.026 166.696C230.666 166.056 230.986 164.84 230.986 163.048V144.552C230.986 143.229 230.879 142.013 230.666 140.904C230.452 139.795 229.962 138.899 229.194 138.216C228.468 137.533 227.338 137.192 225.802 137.192C224.052 137.192 222.495 137.683 221.13 138.664C219.807 139.645 218.762 141.011 217.994 142.76C217.226 144.509 216.842 146.515 216.842 148.776V163.048C216.842 164.84 217.162 166.056 217.802 166.696C218.442 167.336 219.53 167.656 221.066 167.656V169C220.383 168.957 219.359 168.915 217.994 168.872C216.671 168.787 215.306 168.744 213.898 168.744C212.49 168.744 211.039 168.787 209.546 168.872C208.052 168.915 206.943 168.957 206.218 169V167.656C207.967 167.656 209.204 167.336 209.93 166.696C210.698 166.056 211.082 164.84 211.082 163.048V126.568C211.082 124.648 210.74 123.24 210.058 122.344C209.375 121.405 208.095 120.936 206.218 120.936V119.592C207.583 119.72 208.906 119.784 210.186 119.784C211.423 119.784 212.596 119.72 213.706 119.592C214.858 119.421 215.903 119.187 216.842 118.888ZM259.971 135.144C263.725 135.144 266.648 136.296 268.739 138.6C270.872 140.861 271.939 144.403 271.939 149.224H249.347L249.283 148.008H265.795C265.88 145.917 265.709 143.997 265.283 142.248C264.856 140.456 264.173 139.027 263.235 137.96C262.339 136.893 261.165 136.36 259.715 136.36C257.752 136.36 256.003 137.341 254.467 139.304C252.973 141.267 252.077 144.381 251.779 148.648L251.97 148.904C251.885 149.544 251.821 150.248 251.779 151.016C251.736 151.784 251.715 152.552 251.715 153.32C251.715 156.221 252.184 158.717 253.123 160.808C254.061 162.899 255.277 164.499 256.771 165.608C258.307 166.675 259.885 167.208 261.507 167.208C262.787 167.208 264.003 167.016 265.155 166.632C266.307 166.205 267.373 165.523 268.355 164.584C269.336 163.645 270.189 162.387 270.915 160.808L272.195 161.32C271.725 162.728 270.957 164.093 269.891 165.416C268.824 166.739 267.48 167.827 265.859 168.68C264.237 169.491 262.36 169.896 260.227 169.896C257.155 169.896 254.509 169.192 252.291 167.784C250.115 166.376 248.429 164.435 247.235 161.96C246.083 159.443 245.507 156.563 245.507 153.32C245.507 149.565 246.104 146.344 247.299 143.656C248.493 140.925 250.179 138.835 252.355 137.384C254.531 135.891 257.069 135.144 259.971 135.144ZM296.698 135.144C297.85 135.144 298.852 135.379 299.706 135.848C300.602 136.317 301.284 136.936 301.754 137.704C302.266 138.429 302.522 139.261 302.522 140.2C302.522 141.267 302.18 142.205 301.498 143.016C300.858 143.827 299.983 144.232 298.874 144.232C297.978 144.232 297.188 143.955 296.506 143.4C295.823 142.803 295.482 141.971 295.482 140.904C295.482 140.093 295.695 139.411 296.122 138.856C296.591 138.259 297.103 137.789 297.658 137.448C297.359 137.021 296.911 136.808 296.314 136.808C294.991 136.808 293.775 137.213 292.666 138.024C291.556 138.792 290.618 139.795 289.85 141.032C289.082 142.269 288.484 143.592 288.058 145C287.631 146.365 287.418 147.645 287.418 148.84V162.408C287.418 164.499 288.015 165.907 289.21 166.632C290.447 167.315 292.111 167.656 294.202 167.656V169C293.22 168.957 291.834 168.915 290.042 168.872C288.25 168.787 286.351 168.744 284.345 168.744C282.895 168.744 281.444 168.787 279.994 168.872C278.586 168.915 277.519 168.957 276.794 169V167.656C278.543 167.656 279.78 167.336 280.506 166.696C281.274 166.056 281.658 164.84 281.658 163.048V143.016C281.658 141.096 281.316 139.688 280.634 138.792C279.951 137.853 278.671 137.384 276.794 137.384V136.04C278.159 136.168 279.482 136.232 280.762 136.232C281.999 136.232 283.172 136.168 284.282 136.04C285.434 135.869 286.479 135.635 287.418 135.336V143.336C287.887 142.099 288.548 140.861 289.402 139.624C290.298 138.344 291.364 137.277 292.602 136.424C293.839 135.571 295.204 135.144 296.698 135.144ZM319.596 135.144C323.35 135.144 326.273 136.296 328.364 138.6C330.497 140.861 331.564 144.403 331.564 149.224H308.972L308.908 148.008H325.42C325.505 145.917 325.334 143.997 324.908 142.248C324.481 140.456 323.798 139.027 322.86 137.96C321.964 136.893 320.79 136.36 319.34 136.36C317.377 136.36 315.628 137.341 314.092 139.304C312.598 141.267 311.702 144.381 311.404 148.648L311.595 148.904C311.51 149.544 311.446 150.248 311.404 151.016C311.361 151.784 311.34 152.552 311.34 153.32C311.34 156.221 311.809 158.717 312.748 160.808C313.686 162.899 314.902 164.499 316.396 165.608C317.932 166.675 319.51 167.208 321.132 167.208C322.412 167.208 323.628 167.016 324.78 166.632C325.932 166.205 326.998 165.523 327.98 164.584C328.961 163.645 329.814 162.387 330.54 160.808L331.82 161.32C331.35 162.728 330.582 164.093 329.516 165.416C328.449 166.739 327.105 167.827 325.484 168.68C323.862 169.491 321.985 169.896 319.852 169.896C316.78 169.896 314.134 169.192 311.916 167.784C309.74 166.376 308.054 164.435 306.86 161.96C305.708 159.443 305.132 156.563 305.132 153.32C305.132 149.565 305.729 146.344 306.924 143.656C308.118 140.925 309.804 138.835 311.98 137.384C314.156 135.891 316.694 135.144 319.596 135.144ZM342.947 118.952C343.757 118.952 344.44 119.229 344.995 119.784C345.592 120.339 345.891 121.256 345.891 122.536C345.891 124.2 345.763 126.269 345.507 128.744C345.293 131.219 345.016 133.971 344.675 137C344.376 139.987 344.099 143.144 343.843 146.472C343.629 149.757 343.523 153.085 343.523 156.456H342.371C342.371 153.085 342.243 149.757 341.987 146.472C341.773 143.144 341.496 139.987 341.155 137C340.856 133.971 340.579 131.219 340.323 128.744C340.109 126.269 340.003 124.2 340.003 122.536C340.003 121.256 340.28 120.339 340.835 119.784C341.432 119.229 342.136 118.952 342.947 118.952ZM342.947 161.704C344.056 161.704 345.016 162.109 345.827 162.92C346.637 163.731 347.043 164.691 347.043 165.8C347.043 166.909 346.637 167.869 345.827 168.68C345.016 169.491 344.056 169.896 342.947 169.896C341.837 169.896 340.877 169.491 340.067 168.68C339.256 167.869 338.851 166.909 338.851 165.8C338.851 164.691 339.256 163.731 340.067 162.92C340.877 162.109 341.837 161.704 342.947 161.704Z" fill="black"/>
<path d="M119.008 228.688V229.968C117.557 230.011 116.448 230.181 115.68 230.48C114.955 230.736 114.464 231.248 114.208 232.016C113.952 232.741 113.824 233.893 113.824 235.472V267.216C113.824 268.752 113.952 269.904 114.208 270.672C114.464 271.44 114.955 271.952 115.68 272.208C116.448 272.464 117.557 272.635 119.008 272.72V274C118.027 273.915 116.789 273.872 115.296 273.872C113.845 273.829 112.373 273.808 110.88 273.808C109.216 273.808 107.659 273.829 106.208 273.872C104.757 273.872 103.584 273.915 102.688 274V272.72C104.139 272.635 105.227 272.464 105.952 272.208C106.72 271.952 107.232 271.44 107.488 270.672C107.744 269.904 107.872 268.752 107.872 267.216V235.472C107.872 233.893 107.744 232.741 107.488 232.016C107.232 231.248 106.72 230.736 105.952 230.48C105.227 230.181 104.139 230.011 102.688 229.968V228.688C103.584 228.731 104.757 228.773 106.208 228.816C107.659 228.859 109.216 228.88 110.88 228.88C112.373 228.88 113.845 228.859 115.296 228.816C116.789 228.773 118.027 228.731 119.008 228.688ZM148.569 274.448C146.82 274.448 145.305 274.128 144.025 273.488C142.745 272.805 141.764 271.867 141.081 270.672C140.441 269.477 140.121 268.091 140.121 266.512C140.121 264.635 140.548 263.099 141.401 261.904C142.297 260.709 143.428 259.749 144.793 259.024C146.158 258.299 147.588 257.701 149.081 257.232C150.617 256.72 152.068 256.251 153.433 255.824C154.798 255.355 155.908 254.821 156.761 254.224C157.657 253.627 158.105 252.837 158.105 251.856V247.888C158.105 246.096 157.828 244.731 157.273 243.792C156.761 242.853 156.057 242.235 155.161 241.936C154.265 241.595 153.262 241.424 152.153 241.424C151.086 241.424 149.934 241.573 148.697 241.872C147.502 242.171 146.542 242.789 145.817 243.728C146.628 243.899 147.332 244.325 147.929 245.008C148.526 245.691 148.825 246.565 148.825 247.632C148.825 248.699 148.484 249.552 147.801 250.192C147.118 250.789 146.244 251.088 145.177 251.088C143.94 251.088 143.022 250.704 142.425 249.936C141.87 249.125 141.593 248.229 141.593 247.248C141.593 246.139 141.87 245.243 142.425 244.56C142.98 243.877 143.684 243.237 144.537 242.64C145.518 241.957 146.777 241.381 148.313 240.912C149.892 240.4 151.662 240.144 153.625 240.144C155.374 240.144 156.868 240.357 158.105 240.784C159.342 241.168 160.366 241.744 161.177 242.512C162.286 243.536 163.012 244.795 163.353 246.288C163.694 247.739 163.865 249.488 163.865 251.536V269.328C163.865 270.395 164.014 271.163 164.313 271.632C164.654 272.101 165.166 272.336 165.849 272.336C166.318 272.336 166.766 272.229 167.193 272.016C167.62 271.803 168.132 271.461 168.729 270.992L169.433 272.08C168.537 272.763 167.684 273.339 166.873 273.808C166.062 274.235 164.974 274.448 163.609 274.448C162.372 274.448 161.348 274.235 160.537 273.808C159.726 273.381 159.108 272.763 158.681 271.952C158.297 271.099 158.105 270.032 158.105 268.752C156.953 270.672 155.566 272.101 153.945 273.04C152.366 273.979 150.574 274.448 148.569 274.448ZM150.873 271.888C152.281 271.888 153.582 271.483 154.777 270.672C156.014 269.861 157.124 268.645 158.105 267.024V254.48C157.593 255.205 156.846 255.824 155.865 256.336C154.884 256.805 153.817 257.296 152.665 257.808C151.513 258.277 150.404 258.853 149.337 259.536C148.313 260.176 147.46 261.029 146.777 262.096C146.094 263.163 145.753 264.549 145.753 266.256C145.753 267.963 146.201 269.328 147.097 270.352C148.036 271.376 149.294 271.888 150.873 271.888ZM192.476 240.144C193.969 240.144 195.271 240.357 196.38 240.784C197.489 241.211 198.407 241.808 199.132 242.576C199.943 243.429 200.497 244.539 200.796 245.904C201.095 247.269 201.244 248.955 201.244 250.96V268.048C201.244 269.84 201.607 271.056 202.332 271.696C203.1 272.336 204.359 272.656 206.108 272.656V274C205.383 273.957 204.273 273.915 202.78 273.872C201.287 273.787 199.836 273.744 198.428 273.744C197.02 273.744 195.633 273.787 194.268 273.872C192.945 273.915 191.943 273.957 191.26 274V272.656C192.796 272.656 193.884 272.336 194.524 271.696C195.164 271.056 195.484 269.84 195.484 268.048V249.552C195.484 248.229 195.399 247.013 195.228 245.904C195.057 244.795 194.631 243.899 193.948 243.216C193.265 242.533 192.156 242.192 190.62 242.192C188.956 242.192 187.463 242.704 186.14 243.728C184.86 244.752 183.836 246.16 183.068 247.952C182.343 249.701 181.98 251.664 181.98 253.84V268.048C181.98 269.84 182.3 271.056 182.94 271.696C183.58 272.336 184.668 272.656 186.204 272.656V274C185.521 273.957 184.497 273.915 183.132 273.872C181.809 273.787 180.444 273.744 179.036 273.744C177.628 273.744 176.177 273.787 174.684 273.872C173.191 273.915 172.081 273.957 171.356 274V272.656C173.105 272.656 174.343 272.336 175.068 271.696C175.836 271.056 176.22 269.84 176.22 268.048V248.016C176.22 246.096 175.879 244.688 175.196 243.792C174.513 242.853 173.233 242.384 171.356 242.384V241.04C172.721 241.168 174.044 241.232 175.324 241.232C176.561 241.232 177.735 241.168 178.844 241.04C179.996 240.869 181.041 240.635 181.98 240.336V247.888C183.089 245.115 184.604 243.131 186.524 241.936C188.444 240.741 190.428 240.144 192.476 240.144ZM211.74 240.144C213.233 240.144 214.535 240.357 215.644 240.784C216.753 241.211 217.671 241.808 218.396 242.576C219.207 243.429 219.761 244.539 220.06 245.904C220.359 247.269 220.508 248.955 220.508 250.96V268.048C220.508 269.84 220.871 271.056 221.596 271.696C222.364 272.336 223.623 272.656 225.372 272.656V274C224.647 273.957 223.537 273.915 222.044 273.872C220.551 273.787 219.1 273.744 217.692 273.744C216.284 273.744 214.897 273.787 213.532 273.872C212.209 273.915 211.207 273.957 210.524 274V272.656C212.06 272.656 213.148 272.336 213.788 271.696C214.428 271.056 214.748 269.84 214.748 268.048V249.552C214.748 248.229 214.663 247.013 214.492 245.904C214.321 244.795 213.895 243.899 213.212 243.216C212.529 242.533 211.42 242.192 209.884 242.192C208.22 242.192 206.727 242.704 205.404 243.728C204.124 244.752 203.1 246.139 202.332 247.888C201.607 249.637 201.244 251.6 201.244 253.776L201.052 247.824C202.204 244.88 203.761 242.875 205.724 241.808C207.687 240.699 209.692 240.144 211.74 240.144Z" fill="black"/>
<path d="M124.064 332.792C126.837 332.792 129.077 333.219 130.784 334.072C132.491 334.883 134.091 335.843 135.584 336.952C136.139 337.379 136.565 337.592 136.864 337.592C137.675 337.592 138.208 336.291 138.464 333.688H139.936C139.851 335.267 139.787 337.187 139.744 339.448C139.701 341.709 139.68 344.696 139.68 348.408H138.208C137.909 346.616 137.547 344.888 137.12 343.224C136.693 341.56 135.989 340.131 135.008 338.936C133.771 337.357 132.149 336.141 130.144 335.288C128.139 334.392 126.069 333.944 123.936 333.944C121.803 333.944 119.861 334.477 118.112 335.544C116.405 336.568 114.933 338.061 113.696 340.024C112.459 341.987 111.499 344.355 110.816 347.128C110.176 349.859 109.856 352.952 109.856 356.408C109.856 364.088 111.093 369.72 113.568 373.304C116.043 376.845 119.883 378.616 125.088 378.616C126.624 378.616 127.947 378.403 129.056 377.976C130.208 377.507 131.104 377.059 131.744 376.632C132.555 376.077 133.067 375.565 133.28 375.096C133.493 374.584 133.6 373.923 133.6 373.112V366.968C133.6 365.219 133.429 363.917 133.088 363.064C132.747 362.211 132.107 361.635 131.168 361.336C130.272 361.037 128.928 360.867 127.136 360.824V359.544C127.904 359.587 128.8 359.629 129.824 359.672C130.848 359.672 131.915 359.693 133.024 359.736C134.176 359.736 135.221 359.736 136.16 359.736C137.568 359.736 138.827 359.715 139.936 359.672C141.088 359.629 142.048 359.587 142.816 359.544V360.824C141.877 360.867 141.173 361.016 140.704 361.272C140.235 361.528 139.915 362.04 139.744 362.808C139.616 363.576 139.552 364.749 139.552 366.328V379H138.272C138.229 378.275 138.059 377.485 137.76 376.632C137.504 375.779 137.099 375.352 136.544 375.352C136.288 375.352 136.032 375.416 135.776 375.544C135.52 375.672 135.072 375.971 134.432 376.44C133.024 377.507 131.531 378.36 129.952 379C128.373 379.597 126.539 379.896 124.448 379.896C120.053 379.896 116.277 379 113.12 377.208C110.005 375.373 107.616 372.749 105.952 369.336C104.288 365.923 103.456 361.848 103.456 357.112C103.456 352.12 104.352 347.811 106.144 344.184C107.936 340.557 110.368 337.763 113.44 335.8C116.555 333.795 120.096 332.792 124.064 332.792ZM155.632 379.448C153.882 379.448 152.368 379.128 151.088 378.488C149.808 377.805 148.826 376.867 148.144 375.672C147.504 374.477 147.184 373.091 147.184 371.512C147.184 369.635 147.61 368.099 148.464 366.904C149.36 365.709 150.49 364.749 151.856 364.024C153.221 363.299 154.65 362.701 156.144 362.232C157.68 361.72 159.13 361.251 160.496 360.824C161.861 360.355 162.97 359.821 163.824 359.224C164.72 358.627 165.168 357.837 165.168 356.856V352.888C165.168 351.096 164.89 349.731 164.336 348.792C163.824 347.853 163.12 347.235 162.224 346.936C161.328 346.595 160.325 346.424 159.216 346.424C158.149 346.424 156.997 346.573 155.76 346.872C154.565 347.171 153.605 347.789 152.88 348.728C153.69 348.899 154.394 349.325 154.992 350.008C155.589 350.691 155.888 351.565 155.888 352.632C155.888 353.699 155.546 354.552 154.864 355.192C154.181 355.789 153.306 356.088 152.24 356.088C151.002 356.088 150.085 355.704 149.488 354.936C148.933 354.125 148.656 353.229 148.656 352.248C148.656 351.139 148.933 350.243 149.488 349.56C150.042 348.877 150.746 348.237 151.6 347.64C152.581 346.957 153.84 346.381 155.376 345.912C156.954 345.4 158.725 345.144 160.688 345.144C162.437 345.144 163.93 345.357 165.168 345.784C166.405 346.168 167.429 346.744 168.24 347.512C169.349 348.536 170.074 349.795 170.416 351.288C170.757 352.739 170.928 354.488 170.928 356.536V374.328C170.928 375.395 171.077 376.163 171.376 376.632C171.717 377.101 172.229 377.336 172.912 377.336C173.381 377.336 173.829 377.229 174.256 377.016C174.682 376.803 175.194 376.461 175.792 375.992L176.496 377.08C175.6 377.763 174.746 378.339 173.936 378.808C173.125 379.235 172.037 379.448 170.672 379.448C169.434 379.448 168.41 379.235 167.6 378.808C166.789 378.381 166.17 377.763 165.744 376.952C165.36 376.099 165.168 375.032 165.168 373.752C164.016 375.672 162.629 377.101 161.008 378.04C159.429 378.979 157.637 379.448 155.632 379.448ZM157.936 376.888C159.344 376.888 160.645 376.483 161.84 375.672C163.077 374.861 164.186 373.645 165.168 372.024V359.48C164.656 360.205 163.909 360.824 162.928 361.336C161.946 361.805 160.88 362.296 159.728 362.808C158.576 363.277 157.466 363.853 156.4 364.536C155.376 365.176 154.522 366.029 153.84 367.096C153.157 368.163 152.816 369.549 152.816 371.256C152.816 372.963 153.264 374.328 154.16 375.352C155.098 376.376 156.357 376.888 157.936 376.888ZM207.475 345.336V372.088C207.475 374.008 207.816 375.437 208.499 376.376C209.224 377.272 210.504 377.72 212.339 377.72V379.064C211.016 378.936 209.693 378.872 208.371 378.872C207.133 378.872 205.939 378.936 204.787 379.064C203.677 379.192 202.653 379.427 201.715 379.768V372.216C200.648 374.989 199.133 376.973 197.171 378.168C195.251 379.32 193.267 379.896 191.219 379.896C189.725 379.896 188.424 379.683 187.315 379.256C186.205 378.829 185.288 378.232 184.562 377.464C183.752 376.611 183.197 375.501 182.899 374.136C182.6 372.771 182.451 371.085 182.451 369.08V353.016C182.451 351.096 182.109 349.688 181.427 348.792C180.744 347.853 179.464 347.384 177.587 347.384V346.04C178.952 346.168 180.275 346.232 181.555 346.232C182.792 346.232 183.965 346.168 185.075 346.04C186.227 345.869 187.272 345.635 188.211 345.336V370.488C188.211 371.811 188.296 373.027 188.467 374.136C188.637 375.245 189.064 376.141 189.747 376.824C190.429 377.507 191.539 377.848 193.075 377.848C194.739 377.848 196.211 377.336 197.491 376.312C198.813 375.288 199.837 373.901 200.563 372.152C201.331 370.403 201.715 368.44 201.715 366.264V353.016C201.715 351.096 201.373 349.688 200.691 348.792C200.008 347.853 198.728 347.384 196.851 347.384V346.04C198.216 346.168 199.539 346.232 200.819 346.232C202.056 346.232 203.229 346.168 204.339 346.04C205.491 345.869 206.536 345.635 207.475 345.336ZM235.51 345.144C236.662 345.144 237.665 345.379 238.518 345.848C239.414 346.317 240.097 346.936 240.566 347.704C241.078 348.429 241.334 349.261 241.334 350.2C241.334 351.267 240.993 352.205 240.31 353.016C239.67 353.827 238.795 354.232 237.686 354.232C236.79 354.232 236.001 353.955 235.318 353.4C234.635 352.803 234.294 351.971 234.294 350.904C234.294 350.093 234.507 349.411 234.934 348.856C235.403 348.259 235.915 347.789 236.47 347.448C236.171 347.021 235.723 346.808 235.126 346.808C233.803 346.808 232.587 347.213 231.478 348.024C230.369 348.792 229.43 349.795 228.662 351.032C227.894 352.269 227.297 353.592 226.87 355C226.443 356.365 226.23 357.645 226.23 358.84V372.408C226.23 374.499 226.827 375.907 228.022 376.632C229.259 377.315 230.923 377.656 233.014 377.656V379C232.033 378.957 230.646 378.915 228.854 378.872C227.062 378.787 225.163 378.744 223.158 378.744C221.707 378.744 220.257 378.787 218.806 378.872C217.398 378.915 216.331 378.957 215.606 379V377.656C217.355 377.656 218.593 377.336 219.318 376.696C220.086 376.056 220.47 374.84 220.47 373.048V353.016C220.47 351.096 220.129 349.688 219.446 348.792C218.763 347.853 217.483 347.384 215.606 347.384V346.04C216.971 346.168 218.294 346.232 219.574 346.232C220.811 346.232 221.985 346.168 223.094 346.04C224.246 345.869 225.291 345.635 226.23 345.336V353.336C226.699 352.099 227.361 350.861 228.214 349.624C229.11 348.344 230.177 347.277 231.414 346.424C232.651 345.571 234.017 345.144 235.51 345.144ZM253.194 379.448C251.445 379.448 249.93 379.128 248.65 378.488C247.37 377.805 246.389 376.867 245.706 375.672C245.066 374.477 244.746 373.091 244.746 371.512C244.746 369.635 245.173 368.099 246.026 366.904C246.922 365.709 248.053 364.749 249.418 364.024C250.783 363.299 252.213 362.701 253.706 362.232C255.242 361.72 256.693 361.251 258.058 360.824C259.423 360.355 260.533 359.821 261.386 359.224C262.282 358.627 262.73 357.837 262.73 356.856V352.888C262.73 351.096 262.453 349.731 261.898 348.792C261.386 347.853 260.682 347.235 259.786 346.936C258.89 346.595 257.887 346.424 256.778 346.424C255.711 346.424 254.559 346.573 253.322 346.872C252.127 347.171 251.167 347.789 250.442 348.728C251.253 348.899 251.957 349.325 252.554 350.008C253.151 350.691 253.45 351.565 253.45 352.632C253.45 353.699 253.109 354.552 252.426 355.192C251.743 355.789 250.869 356.088 249.802 356.088C248.565 356.088 247.647 355.704 247.05 354.936C246.495 354.125 246.218 353.229 246.218 352.248C246.218 351.139 246.495 350.243 247.05 349.56C247.605 348.877 248.309 348.237 249.162 347.64C250.143 346.957 251.402 346.381 252.938 345.912C254.517 345.4 256.287 345.144 258.25 345.144C259.999 345.144 261.493 345.357 262.73 345.784C263.967 346.168 264.991 346.744 265.802 347.512C266.911 348.536 267.637 349.795 267.978 351.288C268.319 352.739 268.49 354.488 268.49 356.536V374.328C268.49 375.395 268.639 376.163 268.938 376.632C269.279 377.101 269.791 377.336 270.474 377.336C270.943 377.336 271.391 377.229 271.818 377.016C272.245 376.803 272.757 376.461 273.354 375.992L274.058 377.08C273.162 377.763 272.309 378.339 271.498 378.808C270.687 379.235 269.599 379.448 268.234 379.448C266.997 379.448 265.973 379.235 265.162 378.808C264.351 378.381 263.733 377.763 263.306 376.952C262.922 376.099 262.73 375.032 262.73 373.752C261.578 375.672 260.191 377.101 258.57 378.04C256.991 378.979 255.199 379.448 253.194 379.448ZM255.498 376.888C256.906 376.888 258.207 376.483 259.402 375.672C260.639 374.861 261.749 373.645 262.73 372.024V359.48C262.218 360.205 261.471 360.824 260.49 361.336C259.509 361.805 258.442 362.296 257.29 362.808C256.138 363.277 255.029 363.853 253.962 364.536C252.938 365.176 252.085 366.029 251.402 367.096C250.719 368.163 250.378 369.549 250.378 371.256C250.378 372.963 250.826 374.328 251.722 375.352C252.661 376.376 253.919 376.888 255.498 376.888ZM304.917 346.04V347.32C304.106 347.405 303.359 347.768 302.677 348.408C301.994 349.048 301.354 350.179 300.757 351.8L290.26 379.32C290.09 379.32 289.919 379.32 289.749 379.32C289.578 379.32 289.386 379.32 289.173 379.32L277.397 350.968C276.714 349.304 276.031 348.301 275.349 347.96C274.709 347.576 274.154 347.384 273.684 347.384V346.04C274.538 346.083 275.413 346.147 276.309 346.232C277.247 346.275 278.25 346.296 279.317 346.296C280.639 346.296 282.026 346.275 283.477 346.232C284.97 346.189 286.357 346.125 287.637 346.04V347.384C286.57 347.384 285.61 347.469 284.757 347.64C283.946 347.768 283.413 348.173 283.157 348.856C282.943 349.539 283.157 350.712 283.797 352.376L291.797 372.152L291.413 372.472L298.709 353.336C299.263 351.928 299.477 350.819 299.349 350.008C299.263 349.155 298.837 348.515 298.069 348.088C297.343 347.661 296.213 347.405 294.677 347.32V346.04C295.445 346.083 296.106 346.125 296.661 346.168C297.215 346.168 297.749 346.189 298.261 346.232C298.815 346.232 299.413 346.232 300.053 346.232C301.034 346.232 301.909 346.211 302.677 346.168C303.487 346.125 304.234 346.083 304.917 346.04ZM322.063 333.688C322.959 333.731 324.132 333.773 325.583 333.816C327.034 333.859 328.463 333.88 329.871 333.88C331.876 333.88 333.796 333.859 335.631 333.816C337.466 333.773 338.767 333.752 339.535 333.752C344.698 333.752 348.559 334.925 351.119 337.272C353.679 339.619 354.959 342.648 354.959 346.36C354.959 347.896 354.703 349.517 354.191 351.224C353.679 352.888 352.783 354.445 351.503 355.896C350.266 357.304 348.559 358.456 346.383 359.352C344.207 360.248 341.455 360.696 338.127 360.696H331.983V359.416H337.487C340.516 359.416 342.82 358.84 344.399 357.688C346.02 356.536 347.108 355.021 347.663 353.144C348.26 351.267 348.559 349.24 348.559 347.064C348.559 343.011 347.748 339.981 346.127 337.976C344.548 335.971 341.818 334.968 337.935 334.968C335.972 334.968 334.692 335.331 334.095 336.056C333.498 336.781 333.199 338.253 333.199 340.472V372.216C333.199 373.752 333.348 374.904 333.647 375.672C333.988 376.44 334.628 376.952 335.567 377.208C336.506 377.464 337.871 377.635 339.663 377.72V379C338.554 378.915 337.146 378.872 335.439 378.872C333.732 378.829 332.004 378.808 330.255 378.808C328.591 378.808 327.034 378.829 325.583 378.872C324.132 378.872 322.959 378.915 322.063 379V377.72C323.514 377.635 324.602 377.464 325.327 377.208C326.095 376.952 326.607 376.44 326.863 375.672C327.119 374.904 327.247 373.752 327.247 372.216V340.472C327.247 338.893 327.119 337.741 326.863 337.016C326.607 336.248 326.095 335.736 325.327 335.48C324.602 335.181 323.514 335.011 322.063 334.968V333.688ZM367.319 379.448C365.57 379.448 364.055 379.128 362.775 378.488C361.495 377.805 360.514 376.867 359.831 375.672C359.191 374.477 358.871 373.091 358.871 371.512C358.871 369.635 359.298 368.099 360.151 366.904C361.047 365.709 362.178 364.749 363.543 364.024C364.908 363.299 366.338 362.701 367.831 362.232C369.367 361.72 370.818 361.251 372.183 360.824C373.548 360.355 374.658 359.821 375.511 359.224C376.407 358.627 376.855 357.837 376.855 356.856V352.888C376.855 351.096 376.578 349.731 376.023 348.792C375.511 347.853 374.807 347.235 373.911 346.936C373.015 346.595 372.012 346.424 370.903 346.424C369.836 346.424 368.684 346.573 367.447 346.872C366.252 347.171 365.292 347.789 364.567 348.728C365.378 348.899 366.082 349.325 366.679 350.008C367.276 350.691 367.575 351.565 367.575 352.632C367.575 353.699 367.234 354.552 366.551 355.192C365.868 355.789 364.994 356.088 363.927 356.088C362.69 356.088 361.772 355.704 361.175 354.936C360.62 354.125 360.343 353.229 360.343 352.248C360.343 351.139 360.62 350.243 361.175 349.56C361.73 348.877 362.434 348.237 363.287 347.64C364.268 346.957 365.527 346.381 367.063 345.912C368.642 345.4 370.412 345.144 372.375 345.144C374.124 345.144 375.618 345.357 376.855 345.784C378.092 346.168 379.116 346.744 379.927 347.512C381.036 348.536 381.762 349.795 382.103 351.288C382.444 352.739 382.615 354.488 382.615 356.536V374.328C382.615 375.395 382.764 376.163 383.063 376.632C383.404 377.101 383.916 377.336 384.599 377.336C385.068 377.336 385.516 377.229 385.943 377.016C386.37 376.803 386.882 376.461 387.479 375.992L388.183 377.08C387.287 377.763 386.434 378.339 385.623 378.808C384.812 379.235 383.724 379.448 382.359 379.448C381.122 379.448 380.098 379.235 379.287 378.808C378.476 378.381 377.858 377.763 377.431 376.952C377.047 376.099 376.855 375.032 376.855 373.752C375.703 375.672 374.316 377.101 372.695 378.04C371.116 378.979 369.324 379.448 367.319 379.448ZM369.623 376.888C371.031 376.888 372.332 376.483 373.527 375.672C374.764 374.861 375.874 373.645 376.855 372.024V359.48C376.343 360.205 375.596 360.824 374.615 361.336C373.634 361.805 372.567 362.296 371.415 362.808C370.263 363.277 369.154 363.853 368.087 364.536C367.063 365.176 366.21 366.029 365.527 367.096C364.844 368.163 364.503 369.549 364.503 371.256C364.503 372.963 364.951 374.328 365.847 375.352C366.786 376.376 368.044 376.888 369.623 376.888ZM400.41 335.416V346.104H409.882V347.384H400.41V372.152C400.41 374.157 400.773 375.565 401.498 376.376C402.223 377.187 403.226 377.592 404.506 377.592C405.786 377.592 406.895 377.08 407.834 376.056C408.773 374.989 409.583 373.219 410.266 370.744L411.546 371.064C411.119 373.539 410.266 375.629 408.986 377.336C407.749 379.043 405.829 379.896 403.226 379.896C401.775 379.896 400.581 379.704 399.642 379.32C398.703 378.979 397.871 378.467 397.146 377.784C396.207 376.803 395.546 375.629 395.162 374.264C394.821 372.899 394.65 371.085 394.65 368.824V347.384H388.506V346.104H394.65V336.312C395.717 336.269 396.741 336.184 397.722 336.056C398.703 335.928 399.599 335.715 400.41 335.416ZM420.027 330.04C421.136 330.04 422.096 330.445 422.907 331.256C423.718 332.067 424.123 333.027 424.123 334.136C424.123 335.245 423.718 336.205 422.907 337.016C422.096 337.827 421.136 338.232 420.027 338.232C418.918 338.232 417.958 337.827 417.147 337.016C416.336 336.205 415.931 335.245 415.931 334.136C415.931 333.027 416.336 332.067 417.147 331.256C417.958 330.445 418.918 330.04 420.027 330.04ZM423.355 345.336V373.048C423.355 374.84 423.718 376.056 424.443 376.696C425.211 377.336 426.47 377.656 428.219 377.656V379C427.494 378.957 426.384 378.915 424.891 378.872C423.44 378.787 421.968 378.744 420.475 378.744C419.024 378.744 417.552 378.787 416.059 378.872C414.566 378.915 413.456 378.957 412.731 379V377.656C414.48 377.656 415.718 377.336 416.443 376.696C417.211 376.056 417.595 374.84 417.595 373.048V353.016C417.595 351.096 417.254 349.688 416.571 348.792C415.888 347.853 414.608 347.384 412.731 347.384V346.04C414.096 346.168 415.419 346.232 416.699 346.232C417.936 346.232 419.11 346.168 420.219 346.04C421.371 345.869 422.416 345.635 423.355 345.336ZM441.657 328.824V373.048C441.657 374.84 442.02 376.056 442.745 376.696C443.513 377.336 444.772 377.656 446.521 377.656V379C445.796 378.957 444.686 378.915 443.193 378.872C441.742 378.787 440.27 378.744 438.777 378.744C437.326 378.744 435.854 378.787 434.361 378.872C432.868 378.915 431.758 378.957 431.033 379V377.656C432.782 377.656 434.02 377.336 434.745 376.696C435.513 376.056 435.897 374.84 435.897 373.048V336.504C435.897 334.584 435.556 333.176 434.873 332.28C434.19 331.341 432.91 330.872 431.033 330.872V329.528C432.398 329.656 433.721 329.72 435.001 329.72C436.238 329.72 437.412 329.656 438.521 329.528C439.673 329.357 440.718 329.123 441.657 328.824Z" fill="black"/>
<path d="M158.048 478.688V479.968C157.237 480.139 156.341 480.629 155.36 481.44C154.379 482.208 153.589 483.573 152.992 485.536L140.896 524.32C140.811 524.32 140.725 524.32 140.64 524.32C140.555 524.32 140.469 524.32 140.384 524.32C140.299 524.32 140.213 524.32 140.128 524.32C140.043 524.32 139.957 524.32 139.872 524.32L126.304 484.064C125.749 482.4 125.131 481.312 124.448 480.8C123.765 480.288 123.125 480.011 122.528 479.968V478.688C123.296 478.731 124.256 478.773 125.408 478.816C126.56 478.859 127.669 478.88 128.736 478.88C130.4 478.88 131.957 478.859 133.408 478.816C134.859 478.773 136.032 478.731 136.928 478.688V479.968C135.648 480.011 134.624 480.139 133.856 480.352C133.131 480.565 132.704 481.035 132.576 481.76C132.491 482.485 132.704 483.68 133.216 485.344L142.752 514.848L141.856 515.616L150.304 489.056C151.072 486.709 151.413 484.896 151.328 483.616C151.285 482.293 150.816 481.376 149.92 480.864C149.024 480.309 147.68 480.011 145.888 479.968V478.688C147.125 478.731 148.384 478.773 149.664 478.816C150.944 478.859 152.139 478.88 153.248 478.88C154.357 478.88 155.275 478.859 156 478.816C156.725 478.773 157.408 478.731 158.048 478.688ZM113.312 478.688V479.968C112.203 480.053 111.392 480.267 110.88 480.608C110.411 480.949 110.176 481.504 110.176 482.272C110.219 482.997 110.453 484.021 110.88 485.344L120.8 515.616L119.2 517.216L128.16 488.608L129.12 490.144L118.56 524.32C118.475 524.32 118.389 524.32 118.304 524.32C118.219 524.32 118.133 524.32 118.048 524.32C117.963 524.32 117.877 524.32 117.792 524.32C117.707 524.32 117.621 524.32 117.536 524.32L103.968 484.064C103.413 482.4 102.709 481.312 101.856 480.8C101.003 480.288 100.235 480.011 99.552 479.968V478.688C100.405 478.731 101.451 478.773 102.688 478.816C103.968 478.859 105.205 478.88 106.4 478.88C107.808 478.88 109.109 478.859 110.304 478.816C111.541 478.773 112.544 478.731 113.312 478.688ZM170.908 490.144C174.663 490.144 177.585 491.296 179.676 493.6C181.809 495.861 182.876 499.403 182.876 504.224H160.284L160.22 503.008H176.732C176.817 500.917 176.647 498.997 176.22 497.248C175.793 495.456 175.111 494.027 174.172 492.96C173.276 491.893 172.103 491.36 170.652 491.36C168.689 491.36 166.94 492.341 165.404 494.304C163.911 496.267 163.015 499.381 162.716 503.648L162.908 503.904C162.823 504.544 162.759 505.248 162.716 506.016C162.673 506.784 162.652 507.552 162.652 508.32C162.652 511.221 163.121 513.717 164.06 515.808C164.999 517.899 166.215 519.499 167.708 520.608C169.244 521.675 170.823 522.208 172.444 522.208C173.724 522.208 174.94 522.016 176.092 521.632C177.244 521.205 178.311 520.523 179.292 519.584C180.273 518.645 181.127 517.387 181.852 515.808L183.132 516.32C182.663 517.728 181.895 519.093 180.828 520.416C179.761 521.739 178.417 522.827 176.796 523.68C175.175 524.491 173.297 524.896 171.164 524.896C168.092 524.896 165.447 524.192 163.228 522.784C161.052 521.376 159.367 519.435 158.172 516.96C157.02 514.443 156.444 511.563 156.444 508.32C156.444 504.565 157.041 501.344 158.236 498.656C159.431 495.925 161.116 493.835 163.292 492.384C165.468 490.891 168.007 490.144 170.908 490.144ZM197.907 473.824V518.048C197.907 519.84 198.27 521.056 198.995 521.696C199.763 522.336 201.022 522.656 202.771 522.656V524C202.046 523.957 200.936 523.915 199.443 523.872C197.992 523.787 196.52 523.744 195.027 523.744C193.576 523.744 192.104 523.787 190.611 523.872C189.118 523.915 188.008 523.957 187.283 524V522.656C189.032 522.656 190.27 522.336 190.995 521.696C191.763 521.056 192.147 519.84 192.147 518.048V481.504C192.147 479.584 191.806 478.176 191.123 477.28C190.44 476.341 189.16 475.872 187.283 475.872V474.528C188.648 474.656 189.971 474.72 191.251 474.72C192.488 474.72 193.662 474.656 194.771 474.528C195.923 474.357 196.968 474.123 197.907 473.824ZM221.419 490.144C222.784 490.144 224.107 490.315 225.387 490.656C226.667 490.997 227.819 491.509 228.843 492.192C229.824 492.832 230.571 493.579 231.083 494.432C231.595 495.243 231.851 496.139 231.851 497.12C231.851 498.272 231.531 499.168 230.891 499.808C230.251 500.405 229.44 500.704 228.459 500.704C227.52 500.704 226.688 500.427 225.963 499.872C225.28 499.317 224.939 498.528 224.939 497.504C224.939 496.523 225.195 495.733 225.707 495.136C226.261 494.539 226.901 494.155 227.627 493.984C227.2 493.216 226.432 492.576 225.323 492.064C224.256 491.552 223.104 491.296 221.867 491.296C220.8 491.296 219.733 491.552 218.667 492.064C217.6 492.576 216.619 493.429 215.723 494.624C214.827 495.776 214.101 497.376 213.547 499.424C212.992 501.429 212.715 503.947 212.715 506.976C212.715 510.731 213.141 513.717 213.995 515.936C214.848 518.155 215.957 519.755 217.323 520.736C218.731 521.675 220.267 522.144 221.931 522.144C223.04 522.144 224.171 521.931 225.323 521.504C226.475 521.077 227.563 520.395 228.587 519.456C229.611 518.475 230.485 517.173 231.211 515.552L232.427 516C232 517.365 231.296 518.752 230.315 520.16C229.333 521.525 228.053 522.656 226.475 523.552C224.896 524.448 222.955 524.896 220.651 524.896C218.005 524.896 215.616 524.213 213.483 522.848C211.349 521.483 209.643 519.541 208.363 517.024C207.125 514.464 206.507 511.435 206.507 507.936C206.507 504.437 207.125 501.365 208.363 498.72C209.643 496.032 211.413 493.941 213.675 492.448C215.936 490.912 218.517 490.144 221.419 490.144ZM252.224 490.144C254.954 490.144 257.408 490.741 259.584 491.936C261.76 493.131 263.488 495.008 264.768 497.568C266.09 500.128 266.752 503.456 266.752 507.552C266.752 511.648 266.09 514.976 264.768 517.536C263.488 520.053 261.76 521.909 259.584 523.104C257.408 524.299 254.954 524.896 252.224 524.896C249.536 524.896 247.082 524.299 244.864 523.104C242.688 521.909 240.938 520.053 239.616 517.536C238.336 514.976 237.696 511.648 237.696 507.552C237.696 503.456 238.336 500.128 239.616 497.568C240.938 495.008 242.688 493.131 244.864 491.936C247.082 490.741 249.536 490.144 252.224 490.144ZM252.224 491.424C249.792 491.424 247.786 492.683 246.208 495.2C244.672 497.717 243.904 501.835 243.904 507.552C243.904 513.269 244.672 517.387 246.208 519.904C247.786 522.379 249.792 523.616 252.224 523.616C254.656 523.616 256.64 522.379 258.176 519.904C259.754 517.387 260.544 513.269 260.544 507.552C260.544 501.835 259.754 497.717 258.176 495.2C256.64 492.683 254.656 491.424 252.224 491.424ZM292.726 490.144C294.219 490.144 295.521 490.357 296.63 490.784C297.739 491.211 298.657 491.808 299.382 492.576C300.193 493.429 300.747 494.539 301.046 495.904C301.345 497.269 301.494 498.955 301.494 500.96V518.048C301.494 519.84 301.857 521.056 302.582 521.696C303.35 522.336 304.609 522.656 306.358 522.656V524C305.633 523.957 304.523 523.915 303.03 523.872C301.537 523.787 300.086 523.744 298.678 523.744C297.27 523.744 295.883 523.787 294.518 523.872C293.195 523.915 292.193 523.957 291.51 524V522.656C293.046 522.656 294.134 522.336 294.774 521.696C295.414 521.056 295.734 519.84 295.734 518.048V499.552C295.734 498.229 295.649 497.013 295.478 495.904C295.307 494.795 294.881 493.899 294.198 493.216C293.515 492.533 292.406 492.192 290.87 492.192C289.206 492.192 287.713 492.704 286.39 493.728C285.11 494.752 284.086 496.16 283.318 497.952C282.593 499.701 282.23 501.664 282.23 503.84V518.048C282.23 519.84 282.55 521.056 283.19 521.696C283.83 522.336 284.918 522.656 286.454 522.656V524C285.771 523.957 284.747 523.915 283.382 523.872C282.059 523.787 280.694 523.744 279.286 523.744C277.878 523.744 276.427 523.787 274.934 523.872C273.441 523.915 272.331 523.957 271.606 524V522.656C273.355 522.656 274.593 522.336 275.318 521.696C276.086 521.056 276.47 519.84 276.47 518.048V498.016C276.47 496.096 276.129 494.688 275.446 493.792C274.763 492.853 273.483 492.384 271.606 492.384V491.04C272.971 491.168 274.294 491.232 275.574 491.232C276.811 491.232 277.985 491.168 279.094 491.04C280.246 490.869 281.291 490.635 282.23 490.336V497.888C283.339 495.115 284.854 493.131 286.774 491.936C288.694 490.741 290.678 490.144 292.726 490.144ZM311.99 490.144C313.483 490.144 314.785 490.357 315.894 490.784C317.003 491.211 317.921 491.808 318.646 492.576C319.457 493.429 320.011 494.539 320.31 495.904C320.609 497.269 320.758 498.955 320.758 500.96V518.048C320.758 519.84 321.121 521.056 321.846 521.696C322.614 522.336 323.873 522.656 325.622 522.656V524C324.897 523.957 323.787 523.915 322.294 523.872C320.801 523.787 319.35 523.744 317.942 523.744C316.534 523.744 315.147 523.787 313.782 523.872C312.459 523.915 311.457 523.957 310.774 524V522.656C312.31 522.656 313.398 522.336 314.038 521.696C314.678 521.056 314.998 519.84 314.998 518.048V499.552C314.998 498.229 314.913 497.013 314.742 495.904C314.571 494.795 314.145 493.899 313.462 493.216C312.779 492.533 311.67 492.192 310.134 492.192C308.47 492.192 306.977 492.704 305.654 493.728C304.374 494.752 303.35 496.139 302.582 497.888C301.857 499.637 301.494 501.6 301.494 503.776L301.302 497.824C302.454 494.88 304.011 492.875 305.974 491.808C307.937 490.699 309.942 490.144 311.99 490.144ZM343.971 490.144C347.725 490.144 350.648 491.296 352.739 493.6C354.872 495.861 355.939 499.403 355.939 504.224H333.347L333.283 503.008H349.795C349.88 500.917 349.709 498.997 349.283 497.248C348.856 495.456 348.173 494.027 347.235 492.96C346.339 491.893 345.165 491.36 343.715 491.36C341.752 491.36 340.003 492.341 338.467 494.304C336.973 496.267 336.077 499.381 335.779 503.648L335.97 503.904C335.885 504.544 335.821 505.248 335.779 506.016C335.736 506.784 335.715 507.552 335.715 508.32C335.715 511.221 336.184 513.717 337.123 515.808C338.061 517.899 339.277 519.499 340.771 520.608C342.307 521.675 343.885 522.208 345.507 522.208C346.787 522.208 348.003 522.016 349.155 521.632C350.307 521.205 351.373 520.523 352.355 519.584C353.336 518.645 354.189 517.387 354.915 515.808L356.195 516.32C355.725 517.728 354.957 519.093 353.891 520.416C352.824 521.739 351.48 522.827 349.859 523.68C348.237 524.491 346.36 524.896 344.227 524.896C341.155 524.896 338.509 524.192 336.291 522.784C334.115 521.376 332.429 519.435 331.235 516.96C330.083 514.443 329.507 511.563 329.507 508.32C329.507 504.565 330.104 501.344 331.299 498.656C332.493 495.925 334.179 493.835 336.355 492.384C338.531 490.891 341.069 490.144 343.971 490.144Z" fill="#FF6F40"/>
</svg>
